<svg width="39" height="56" viewBox="0 0 39 56" fill="none" xmlns="http://www.w3.org/2000/svg">
<path d="M24.5491 0.687857C24.1815 1.07759 23.3102 1.9029 22.6148 2.53717C20.2968 4.63101 19.8253 5.37991 19.7613 7.09167C19.7134 8.48247 20.0491 9.53703 20.9203 10.7368C21.1521 11.0577 21.3439 11.3023 21.3439 11.2717C21.3439 11.2488 21.2001 10.9508 21.0242 10.6145C20.3528 9.33071 20.153 7.77178 20.5206 6.66373C20.8643 5.62444 21.3679 4.99782 23.0704 3.49239C23.4301 3.17908 23.8697 2.74349 24.0536 2.53717L24.3973 2.15508L24.3493 3.75985C24.3253 4.82206 24.2694 5.55567 24.1815 5.93776C23.8857 7.22922 23.3102 8.25322 22.2631 9.37656C21.5038 10.1942 21.288 10.6604 21.4958 11.0425C21.5278 11.1112 21.5837 11.4016 21.6157 11.6767L21.6636 12.1811L21.208 12.4715C19.6654 13.4496 18.5783 14.8634 18.1387 16.4681C18.0188 16.8961 17.9709 17.3087 17.9709 17.9736C17.9629 19.3873 18.2346 20.5641 18.922 22.0466L19.2817 22.8261L19.1538 23.4374C19.026 24.0564 18.986 25.8981 19.0979 26.3795C19.1379 26.5706 19.1858 26.6088 19.3856 26.6088H19.6254L19.6814 25.623C19.8892 22.1078 21.1041 20.0674 23.9576 18.4397C26.1557 17.1865 26.8032 16.4834 28.2659 13.7629C29.4169 11.6003 29.7846 11.0272 30.6718 9.93441L31.1753 9.31542L30.464 9.60581C29.313 10.0796 27.6584 10.5534 25.6602 10.9813C23.7418 11.3863 22.8706 11.6232 22.2072 11.9442C21.9994 12.0435 21.8075 12.1276 21.7835 12.1276C21.7596 12.1276 21.7516 11.8219 21.7756 11.4398C21.8155 10.6222 21.8235 10.6069 23.0624 9.36892C23.7338 8.70408 24.0136 8.35256 24.2454 7.91698C24.7569 6.94647 24.7969 6.66373 24.741 4.79149C24.685 3.03388 24.7809 1.88762 25.1006 0.611439C25.1806 0.282843 25.2445 0.00773811 25.2365 9.53674e-05C25.2285 -0.00754547 24.9168 0.305767 24.5491 0.687857ZM28.2339 12.6702C26.6273 15.4976 25.5083 16.6974 22.9425 18.3556C22.439 18.6842 21.8475 19.0969 21.6317 19.265C20.8404 19.8916 19.9372 21.1296 19.5935 22.0543C19.5135 22.2759 19.4256 22.4287 19.4016 22.3905C19.2737 22.1995 18.93 20.6405 18.8501 19.9146C18.5863 17.5074 19.5215 15.3983 21.4878 13.9845C22.6148 13.1669 23.6379 12.7924 25.7001 12.4333C26.5794 12.2804 27.9781 11.8907 28.5776 11.6385C28.7135 11.585 28.8254 11.5468 28.8414 11.5545C28.8494 11.5621 28.5776 12.0665 28.2339 12.6702Z" fill="#151618"/>
<path d="M10.485 2.59652C10.9617 4.31829 11.1047 6.57573 10.8743 8.68778C10.5883 11.3202 10.8266 12.116 12.5268 14.2816C12.9876 14.8632 13.5041 15.6208 13.6868 15.9575C14.2032 16.96 14.4813 18.3833 14.4892 20.0974V20.8091L14.2985 20.7326C13.8536 20.5719 13.0512 20.503 11.0332 20.4647C9.85734 20.4418 8.64177 20.3882 8.33192 20.3576C8.03001 20.3193 7.76783 20.304 7.75988 20.3117C7.74399 20.3193 7.90289 20.4418 8.11741 20.5872C9.01518 21.207 9.9209 22.0105 10.9696 23.1201C11.5893 23.7705 12.3282 24.4899 12.6222 24.7118C13.8775 25.6683 15.3155 26.2269 17.0554 26.4259C17.7705 26.5101 17.4845 26.2499 16.2768 25.7449C14.3542 24.9337 13.3928 24.2756 11.9151 22.7681C11.3589 22.2018 10.6836 21.5973 10.4214 21.4213L9.94474 21.1152H10.8822C13.3452 21.1152 14.7355 21.5743 15.9193 22.7757C16.5072 23.365 16.9283 24.0996 17.1428 24.8878C17.2064 25.1403 17.2779 25.3622 17.3017 25.3852C17.3812 25.4541 17.3573 24.4822 17.2699 23.9466C17.0872 22.837 16.1656 21.6126 15.1089 21.0769L14.6481 20.8474V19.5847C14.6481 17.0747 14.4177 16.21 13.2101 14.251C11.6132 11.6492 11.351 10.6238 11.3987 7.01957C11.4145 5.90233 11.4384 4.98405 11.4463 4.9917C11.4463 4.99935 11.6132 5.21362 11.8038 5.46614C12.0025 5.71867 12.7096 6.47625 13.3849 7.14966C15.0215 8.77961 15.6492 9.72085 16.0385 11.1365C16.4755 12.69 16.1179 14.8632 15.0851 16.96C14.8944 17.3502 14.7514 17.6716 14.7594 17.6716C14.7752 17.6716 14.9103 17.488 15.0692 17.2584C16.3166 15.4525 16.9442 13.4169 16.8489 11.5115C16.7933 10.4708 16.5787 9.65963 16.1259 8.75665C15.6651 7.82306 15.1328 7.16496 13.5915 5.62684C12.3918 4.42543 11.5655 3.53775 10.6995 2.55825L10.3658 2.17564L10.485 2.59652Z" fill="#151618"/>
<path d="M24.8116 21.3524C22.9866 21.7252 21.746 23.277 21.738 25.1788C21.738 25.5591 21.722 25.5896 21.4899 25.6656C21.0737 25.8026 21.3778 25.871 22.6665 25.9243C24.5074 26.0004 25.636 25.795 26.5965 25.2016C26.8606 25.0419 27.525 24.5322 28.0773 24.0682C29.1978 23.1401 29.7741 22.7445 30.7186 22.2653L31.351 21.9458L30.5826 21.8925C30.1663 21.8697 29.422 21.7708 28.9257 21.6871C28.4295 21.6035 27.645 21.4665 27.1808 21.3905C26.2043 21.2231 25.4999 21.2079 24.8116 21.3524ZM27.4529 22.3033C27.8452 22.3946 28.4535 22.4935 28.7896 22.5163L29.414 22.5696L28.5415 23.239C27.2128 24.2583 26.3324 24.7224 25.2038 24.9962C24.6275 25.1408 22.0502 25.5135 21.9941 25.4603C21.9221 25.3918 22.1542 24.6843 22.4344 24.129C22.9226 23.1629 23.8431 22.4707 25.0037 22.1892C25.596 22.0447 26.5245 22.0903 27.4529 22.3033Z" fill="#151618"/>
<path d="M6.95586 29.6749C6.85971 33.8076 7.08407 35.2057 8.16581 37.2874C8.73473 38.3782 9.65622 39.6534 10.3133 40.2526C10.4735 40.3985 10.6017 40.5368 10.6017 40.5598C10.6017 40.5906 8.60652 40.5983 6.17861 40.5829C3.74268 40.5675 1.66733 40.5829 1.56316 40.6059C1.46701 40.629 1.3388 40.7365 1.29072 40.8364C1.21861 40.9977 1.22662 41.0515 1.34681 41.1821C1.49105 41.3357 1.57919 41.3357 19.432 41.3357C31.6517 41.3357 37.421 41.3126 37.5332 41.2589C37.7415 41.1513 37.7415 40.7519 37.5332 40.6443C37.429 40.5983 35.7784 40.5675 32.7174 40.5675H28.0619L28.5507 40.0068C29.9449 38.432 30.8504 36.7036 31.4434 34.499C31.6116 33.8921 31.6277 33.631 31.6517 30.5583L31.6918 27.2782H19.3519H7.01195L6.95586 29.6749Z" fill="#151618"/>
<path d="M3.63016 42.3759C6.33772 43.5979 10.5112 44.5935 14.4044 44.948C15.0933 45.0159 15.4057 45.0687 15.2855 45.0989C15.1173 45.1442 15.1093 45.1517 15.2455 45.1592C15.3336 45.1668 15.8783 45.2045 16.447 45.2498C19.3789 45.4534 25.6592 45.3327 25.483 45.0687C25.4589 45.031 25.4669 45.0159 25.515 45.0386C25.555 45.0612 25.6992 45.0536 25.8274 45.0159C26.0517 44.9556 26.0517 44.9556 25.7393 44.9405C25.547 44.933 25.9556 44.8424 26.7406 44.7142C29.1838 44.322 31.1945 43.8468 32.8447 43.2735C33.7899 42.9416 35.6243 42.1873 35.7525 42.0667C35.7925 42.0289 29.5363 41.9988 19.3308 42.0063L2.8291 42.0139L3.63016 42.3759Z" fill="#151618"/>
<path d="M3.2373 53.5048H3.125C3.12174 53.5048 3.11198 53.5064 3.0957 53.5096C3.08268 53.5129 3.06803 53.5178 3.05176 53.5243C3.03548 53.5275 3.01921 53.5308 3.00293 53.5341C2.98665 53.5373 2.97689 53.5389 2.97363 53.5389C2.80762 53.5552 2.63997 53.565 2.4707 53.5682C2.30143 53.5747 2.13216 53.578 1.96289 53.578C1.92708 53.578 1.88151 53.5764 1.82617 53.5731C1.77409 53.5731 1.72363 53.5666 1.6748 53.5536C1.62598 53.5373 1.58366 53.5145 1.54785 53.4852C1.51204 53.4559 1.49414 53.4136 1.49414 53.3583C1.49414 53.316 1.50391 53.2736 1.52344 53.2313C1.54297 53.189 1.57064 53.1597 1.60645 53.1434C1.639 53.1402 1.69596 53.1369 1.77734 53.1337C1.85872 53.1304 1.94336 53.1272 2.03125 53.1239C2.1224 53.1174 2.20866 53.1125 2.29004 53.1093C2.37142 53.1027 2.42839 53.0962 2.46094 53.0897C2.48047 53.0897 2.50651 53.0897 2.53906 53.0897C2.57161 53.0865 2.60417 53.0816 2.63672 53.0751C2.67253 53.0653 2.70345 53.0539 2.72949 53.0409C2.75879 53.0279 2.78158 53.01 2.79785 52.9872C2.83691 52.9058 2.85645 52.8195 2.85645 52.7284V52.577V52.1864C2.85645 52.1766 2.85807 52.1538 2.86133 52.118C2.86784 52.0822 2.87272 52.0432 2.87598 52.0009C2.88249 51.9585 2.889 51.9178 2.89551 51.8788C2.90202 51.8397 2.90527 51.8153 2.90527 51.8055C2.92155 51.467 2.93132 51.1268 2.93457 50.785C2.93783 50.4432 2.93945 50.1031 2.93945 49.7645C2.93945 49.6213 2.93783 49.4813 2.93457 49.3446C2.93132 49.2079 2.92969 49.0712 2.92969 48.9344C2.92969 48.8856 2.92969 48.8059 2.92969 48.6952C2.93294 48.5813 2.93457 48.4641 2.93457 48.3436C2.93457 48.2199 2.93457 48.1044 2.93457 47.9969C2.93783 47.8863 2.93945 47.8098 2.93945 47.7675C2.92318 47.7024 2.90039 47.6486 2.87109 47.6063C2.84505 47.5608 2.80924 47.5168 2.76367 47.4745C2.7474 47.4712 2.7181 47.468 2.67578 47.4647C2.63672 47.4582 2.5944 47.4533 2.54883 47.4501C2.50651 47.4436 2.46419 47.4387 2.42188 47.4354C2.38281 47.4322 2.35514 47.4305 2.33887 47.4305C2.33236 47.4305 2.31608 47.4338 2.29004 47.4403C2.26725 47.4436 2.24121 47.4484 2.21191 47.455C2.18587 47.4582 2.15983 47.4631 2.13379 47.4696C2.10775 47.4729 2.09147 47.4745 2.08496 47.4745C2.06543 47.4777 2.02474 47.4794 1.96289 47.4794C1.9043 47.4794 1.84082 47.4794 1.77246 47.4794C1.70736 47.4794 1.64551 47.4794 1.58691 47.4794C1.52832 47.4794 1.486 47.4777 1.45996 47.4745C1.41113 47.494 1.35742 47.5087 1.29883 47.5184C1.24023 47.5249 1.1849 47.5461 1.13281 47.5819C1.13281 47.5884 1.12305 47.6014 1.10352 47.621C1.08398 47.6405 1.07096 47.6535 1.06445 47.66C1.03841 47.6893 1.0026 47.73 0.957031 47.7821C0.914714 47.8309 0.872396 47.8814 0.830078 47.9335C0.78776 47.9856 0.748698 48.0311 0.712891 48.0702C0.680339 48.1093 0.662435 48.1304 0.65918 48.1337C0.636393 48.163 0.613607 48.2037 0.59082 48.2557C0.571289 48.3046 0.548503 48.3534 0.522461 48.4022C0.496419 48.4478 0.465495 48.4885 0.429688 48.5243C0.39388 48.5601 0.349935 48.578 0.297852 48.578C0.258789 48.578 0.23112 48.5682 0.214844 48.5487C0.198568 48.5259 0.185547 48.4999 0.175781 48.4706C0.175781 48.4608 0.175781 48.4462 0.175781 48.4266C0.175781 48.4038 0.174154 48.3811 0.170898 48.3583C0.170898 48.3322 0.170898 48.3078 0.170898 48.285C0.170898 48.259 0.170898 48.2411 0.170898 48.2313C0.170898 48.2216 0.170898 48.2069 0.170898 48.1874C0.170898 48.1646 0.170898 48.1434 0.170898 48.1239C0.174154 48.1011 0.175781 48.0816 0.175781 48.0653C0.175781 48.0458 0.175781 48.0344 0.175781 48.0311C0.179036 48.0214 0.185547 47.9969 0.195312 47.9579C0.208333 47.9156 0.221354 47.8716 0.234375 47.826C0.247396 47.7805 0.258789 47.7382 0.268555 47.6991C0.281576 47.66 0.291341 47.6356 0.297852 47.6259C0.297852 47.6161 0.301107 47.5949 0.307617 47.5624C0.314128 47.5298 0.320638 47.4956 0.327148 47.4598C0.336914 47.4208 0.345052 47.3866 0.351562 47.3573C0.358073 47.3247 0.362956 47.3036 0.366211 47.2938C0.366211 47.2873 0.371094 47.2694 0.380859 47.2401C0.39388 47.2108 0.406901 47.1783 0.419922 47.1425C0.432943 47.1066 0.444336 47.0741 0.454102 47.0448C0.467122 47.0155 0.473633 46.9976 0.473633 46.9911C0.483398 46.965 0.493164 46.9358 0.50293 46.9032C0.515951 46.8674 0.530599 46.8348 0.546875 46.8055C0.566406 46.7762 0.589193 46.7518 0.615234 46.7323C0.641276 46.7095 0.672201 46.6981 0.708008 46.6981C0.763346 46.6981 0.807292 46.7128 0.839844 46.7421C0.875651 46.7714 0.908203 46.8039 0.9375 46.8397C0.966797 46.8755 0.996094 46.913 1.02539 46.952C1.05469 46.9878 1.09049 47.0122 1.13281 47.0253C1.20117 47.0253 1.27279 47.0236 1.34766 47.0204C1.42253 47.0171 1.4974 47.0155 1.57227 47.0155C1.71224 47.0155 1.85059 47.0188 1.9873 47.0253C2.12402 47.0318 2.25911 47.0464 2.39258 47.0692C2.39258 47.0692 2.39909 47.0725 2.41211 47.079C2.42513 47.0822 2.43815 47.0871 2.45117 47.0936C2.46745 47.0969 2.4821 47.1001 2.49512 47.1034C2.51139 47.1066 2.52116 47.1083 2.52441 47.1083H2.68066C2.7653 47.1083 2.8418 47.1001 2.91016 47.0839C2.98177 47.0676 3.06152 47.0594 3.14941 47.0594C3.16243 47.0594 3.18034 47.0594 3.20312 47.0594C3.22917 47.0594 3.25521 47.0594 3.28125 47.0594C3.30729 47.0594 3.33008 47.0611 3.34961 47.0643C3.36914 47.0643 3.38216 47.066 3.38867 47.0692C3.40169 47.0692 3.42773 47.0725 3.4668 47.079C3.50911 47.0822 3.55469 47.0871 3.60352 47.0936C3.65234 47.0969 3.69629 47.1001 3.73535 47.1034C3.77767 47.1066 3.80534 47.1083 3.81836 47.1083C3.8444 47.0985 3.87533 47.0904 3.91113 47.0839C3.9502 47.0774 4.00065 47.0725 4.0625 47.0692C4.1276 47.066 4.20898 47.0643 4.30664 47.0643C4.4043 47.0611 4.52637 47.0594 4.67285 47.0594L5.55664 47.0692C5.61198 47.0692 5.66895 47.0513 5.72754 47.0155C5.78613 46.9764 5.84473 46.9325 5.90332 46.8837C5.96191 46.8316 6.01888 46.7811 6.07422 46.7323C6.13281 46.6835 6.18978 46.6493 6.24512 46.6298H6.30371C6.39811 46.6298 6.46484 46.6802 6.50391 46.7811C6.50716 46.8202 6.51367 46.8934 6.52344 47.0009C6.5332 47.105 6.54297 47.2157 6.55273 47.3329C6.56576 47.4501 6.57878 47.5608 6.5918 47.6649C6.60482 47.7691 6.61458 47.8423 6.62109 47.8846C6.62109 47.8912 6.62272 47.9025 6.62598 47.9188C6.62923 47.9351 6.63249 47.9546 6.63574 47.9774C6.64225 47.9969 6.64714 48.0165 6.65039 48.036C6.65365 48.0523 6.65527 48.0621 6.65527 48.0653V48.1385C6.65527 48.2232 6.65202 48.2997 6.64551 48.368C6.639 48.4364 6.63086 48.5145 6.62109 48.6024C6.60807 48.6285 6.5918 48.6464 6.57227 48.6561C6.55599 48.6626 6.53971 48.6659 6.52344 48.6659C6.51367 48.6659 6.50391 48.661 6.49414 48.6512C6.48438 48.648 6.47624 48.6431 6.46973 48.6366C6.4209 48.6138 6.37858 48.5813 6.34277 48.5389C6.31022 48.4966 6.28092 48.451 6.25488 48.4022C6.2321 48.3534 6.21094 48.3029 6.19141 48.2509C6.17188 48.1955 6.15234 48.1451 6.13281 48.0995C6.07747 47.9595 5.98633 47.8472 5.85938 47.7626C5.73568 47.6779 5.6071 47.6063 5.47363 47.5477C5.389 47.5119 5.30599 47.494 5.22461 47.494C5.14323 47.494 5.05534 47.4875 4.96094 47.4745C4.95443 47.4745 4.93001 47.468 4.8877 47.455C4.84863 47.4387 4.82259 47.4305 4.80957 47.4305H4.58984H4.34082C4.31478 47.4305 4.27734 47.4371 4.22852 47.4501C4.17969 47.4598 4.15365 47.468 4.15039 47.4745C4.14062 47.4875 4.12923 47.5005 4.11621 47.5135C4.09342 47.5428 4.07878 47.5656 4.07227 47.5819C4.05924 47.6047 4.0446 47.6356 4.02832 47.6747C4.01204 47.7105 4.00391 47.73 4.00391 47.7333C4.00065 47.743 3.9974 47.7609 3.99414 47.787C3.99089 47.8098 3.98763 47.8342 3.98438 47.8602C3.98438 47.8863 3.98275 47.9123 3.97949 47.9384C3.97624 47.9611 3.97298 47.9774 3.96973 47.9872C3.96973 48.0393 3.97135 48.1288 3.97461 48.2557C3.97786 48.3827 3.97949 48.5194 3.97949 48.6659C3.97949 48.8124 3.97786 48.9507 3.97461 49.0809C3.97135 49.2079 3.96973 49.2941 3.96973 49.3397C3.96973 49.5057 3.95671 49.6685 3.93066 49.828C3.90788 49.9843 3.89648 50.1454 3.89648 50.3114C3.89648 50.4904 3.90137 50.6695 3.91113 50.8485C3.92415 51.0243 3.93066 51.205 3.93066 51.3905C3.93066 51.6151 3.92415 51.8413 3.91113 52.0692C3.90137 52.2971 3.89648 52.5249 3.89648 52.7528C3.89648 52.8212 3.91113 52.8749 3.94043 52.9139C3.97298 52.953 4.01367 52.9823 4.0625 53.0018C4.11133 53.0214 4.16504 53.0344 4.22363 53.0409C4.28548 53.0474 4.34408 53.0523 4.39941 53.0555C4.42546 53.0588 4.46615 53.0621 4.52148 53.0653C4.58008 53.0686 4.6403 53.0718 4.70215 53.0751C4.76725 53.0783 4.82747 53.0816 4.88281 53.0848C4.93815 53.0881 4.97721 53.0897 5 53.0897C5.06185 53.1125 5.10742 53.1483 5.13672 53.1971C5.16927 53.246 5.18555 53.2997 5.18555 53.3583C5.18555 53.4331 5.16439 53.4917 5.12207 53.5341C5.07975 53.5731 5.02604 53.6138 4.96094 53.6561H4.95117C4.83073 53.6561 4.71842 53.6464 4.61426 53.6268C4.51335 53.6106 4.40592 53.5943 4.29199 53.578C3.94368 53.5292 3.59212 53.5048 3.2373 53.5048ZM7.04102 53.5634C7.04102 53.5503 7.03125 53.5324 7.01172 53.5096C6.99544 53.4836 6.98568 53.4624 6.98242 53.4462V53.4266V53.4218C6.98893 53.4087 7.00358 53.3892 7.02637 53.3632C7.04915 53.3371 7.07357 53.3111 7.09961 53.285C7.12891 53.2557 7.15495 53.2297 7.17773 53.2069C7.20378 53.1841 7.22168 53.1678 7.23145 53.1581C7.23796 53.1516 7.25911 53.1451 7.29492 53.1385C7.33398 53.1288 7.36165 53.1239 7.37793 53.1239H7.72461C7.73438 53.1239 7.7474 53.1223 7.76367 53.119C7.7832 53.1125 7.80111 53.1076 7.81738 53.1044C7.83691 53.0979 7.85319 53.0913 7.86621 53.0848C7.88249 53.0783 7.89062 53.0751 7.89062 53.0751C7.9362 53.0523 7.96224 53.0165 7.96875 52.9677C7.97852 52.9156 7.9834 52.8667 7.9834 52.8212V52.743C7.9834 52.6291 7.98014 52.5217 7.97363 52.4208C7.97038 52.3166 7.96875 52.2076 7.96875 52.0936V52.0594C7.96875 52.0497 7.97038 52.0318 7.97363 52.0057C7.97689 51.9797 7.98014 51.952 7.9834 51.9227C7.98991 51.8902 7.99642 51.8609 8.00293 51.8348C8.00944 51.8088 8.01432 51.7909 8.01758 51.7811V49.6522C8.01758 49.5871 8.00618 49.535 7.9834 49.496C7.96061 49.4569 7.93132 49.4276 7.89551 49.4081C7.8597 49.3853 7.81738 49.3706 7.76855 49.3641C7.72298 49.3576 7.67415 49.3544 7.62207 49.3544H7.42188C7.33073 49.3544 7.25423 49.343 7.19238 49.3202C7.13053 49.2974 7.09961 49.2421 7.09961 49.1542C7.09961 49.1249 7.09961 49.0988 7.09961 49.076C7.10286 49.0533 7.111 49.0223 7.12402 48.9833C7.28027 48.9898 7.43327 48.9849 7.58301 48.9686C7.73275 48.9524 7.88411 48.9442 8.03711 48.9442H8.16406C8.17708 48.9475 8.20312 48.9507 8.24219 48.954C8.28451 48.9572 8.32682 48.9605 8.36914 48.9637C8.41471 48.967 8.45703 48.9703 8.49609 48.9735C8.53516 48.9768 8.56283 48.98 8.5791 48.9833H10.874C10.9717 48.9833 11.0417 49.0093 11.084 49.0614C11.1263 49.1102 11.1572 49.1721 11.1768 49.2469V49.5253V49.8134C11.1768 49.8329 11.1735 49.8687 11.167 49.9208C11.1605 49.9696 11.1523 50.0233 11.1426 50.0819C11.1361 50.1372 11.1279 50.1926 11.1182 50.2479C11.1117 50.3 11.1068 50.3374 11.1035 50.3602C11.097 50.37 11.0856 50.3846 11.0693 50.4042C11.0531 50.4205 11.0417 50.4286 11.0352 50.4286C11.0352 50.4351 11.0319 50.4384 11.0254 50.4384H11.0205H11.0059C10.9961 50.4384 10.9912 50.4351 10.9912 50.4286C10.9359 50.3895 10.8936 50.3456 10.8643 50.2968C10.835 50.2447 10.8105 50.191 10.791 50.1356C10.7715 50.0803 10.7536 50.0249 10.7373 49.9696C10.721 49.9143 10.6966 49.8622 10.6641 49.8134C10.6576 49.8003 10.6364 49.7792 10.6006 49.7499C10.568 49.7173 10.5501 49.6994 10.5469 49.6962C10.5404 49.6897 10.5257 49.6718 10.5029 49.6425C10.4834 49.6132 10.4606 49.5822 10.4346 49.5497C10.4118 49.5139 10.389 49.4813 10.3662 49.452C10.3467 49.4227 10.3337 49.4048 10.3271 49.3983C10.3141 49.369 10.2995 49.3544 10.2832 49.3544C10.2799 49.3544 10.2686 49.3527 10.249 49.3495C10.2327 49.3462 10.2132 49.343 10.1904 49.3397C10.1709 49.3332 10.1514 49.3283 10.1318 49.3251C10.1156 49.3218 10.1074 49.3186 10.1074 49.3153C10.0977 49.3153 10.0798 49.3121 10.0537 49.3055C10.0277 49.299 9.99837 49.2925 9.96582 49.286C9.93652 49.2795 9.90885 49.273 9.88281 49.2665C9.85677 49.2567 9.84049 49.2502 9.83398 49.2469H9.80957C9.79655 49.2469 9.77865 49.2518 9.75586 49.2616C9.73307 49.2681 9.7168 49.2714 9.70703 49.2714H9.69238C9.68262 49.2681 9.65495 49.2649 9.60938 49.2616C9.56706 49.2583 9.51986 49.2567 9.46777 49.2567C9.41569 49.2535 9.36686 49.2518 9.32129 49.2518C9.27897 49.2486 9.25293 49.2469 9.24316 49.2469H9.22852C9.16992 49.2469 9.12109 49.2583 9.08203 49.2811C9.04297 49.3039 9.01042 49.3332 8.98438 49.369C8.96159 49.4048 8.94043 49.4455 8.9209 49.4911C8.90462 49.5334 8.88835 49.5757 8.87207 49.618C8.86882 49.6538 8.8623 49.7124 8.85254 49.7938C8.84603 49.8752 8.83789 49.9615 8.82812 50.0526C8.82161 50.1438 8.8151 50.23 8.80859 50.3114C8.80208 50.3928 8.79883 50.4497 8.79883 50.4823V50.5214V50.5458C8.79883 50.5621 8.80046 50.5897 8.80371 50.6288C8.80697 50.6678 8.81022 50.7102 8.81348 50.7557C8.81673 50.7981 8.81999 50.8404 8.82324 50.8827C8.82975 50.9218 8.83464 50.9478 8.83789 50.9608C8.86068 50.9901 8.88672 51.0194 8.91602 51.0487C8.94857 51.078 8.98275 51.0975 9.01855 51.1073H9.28711C9.39779 51.1073 9.49382 51.1057 9.5752 51.1024C9.65983 51.0992 9.76074 51.0894 9.87793 51.0731C9.88118 51.0666 9.88607 51.0552 9.89258 51.0389C9.89909 51.0227 9.90723 51.0064 9.91699 50.9901C9.92676 50.9738 9.9349 50.9592 9.94141 50.9462C9.94792 50.9331 9.9528 50.925 9.95605 50.9218C9.96908 50.899 9.98535 50.8664 10.0049 50.8241C10.0244 50.7785 10.0439 50.7346 10.0635 50.6923C10.083 50.6467 10.0993 50.6076 10.1123 50.5751C10.1286 50.5425 10.1383 50.5246 10.1416 50.5214C10.1481 50.5083 10.1546 50.4807 10.1611 50.4384C10.1676 50.3928 10.1742 50.3667 10.1807 50.3602C10.2067 50.3309 10.2409 50.3114 10.2832 50.3016C10.3255 50.2919 10.3678 50.287 10.4102 50.287C10.4557 50.287 10.4834 50.3049 10.4932 50.3407C10.5062 50.3733 10.5127 50.4107 10.5127 50.453V50.5751V50.6337C10.5127 50.663 10.5094 50.6923 10.5029 50.7216C10.4964 50.7476 10.485 50.7736 10.4688 50.7997C10.4655 50.829 10.4622 50.8778 10.459 50.9462C10.4557 51.0145 10.4525 51.0861 10.4492 51.161C10.446 51.2359 10.4427 51.3075 10.4395 51.3759C10.4362 51.441 10.4346 51.4865 10.4346 51.5126V51.6395V51.9325C10.4313 51.939 10.4281 51.9537 10.4248 51.9764C10.4215 51.9992 10.4183 52.0253 10.415 52.0546C10.415 52.0806 10.4134 52.1066 10.4102 52.1327C10.4069 52.1587 10.4036 52.1766 10.4004 52.1864C10.3646 52.2124 10.332 52.232 10.3027 52.245C10.2767 52.258 10.2441 52.2645 10.2051 52.2645C10.179 52.2645 10.1546 52.2548 10.1318 52.2352C10.109 52.2124 10.0879 52.1848 10.0684 52.1522C10.0488 52.1197 10.0326 52.0871 10.0195 52.0546C10.0065 52.0188 9.99837 51.9862 9.99512 51.9569C9.99186 51.9471 9.98698 51.926 9.98047 51.8934C9.97721 51.8576 9.97396 51.8202 9.9707 51.7811C9.96745 51.7388 9.96419 51.6997 9.96094 51.6639C9.95768 51.6281 9.95605 51.6021 9.95605 51.5858C9.94629 51.5728 9.92839 51.5614 9.90234 51.5516C9.87956 51.5386 9.85677 51.5256 9.83398 51.5126C9.81445 51.5061 9.78353 51.4979 9.74121 51.4882C9.69889 51.4784 9.65332 51.4703 9.60449 51.4637C9.55892 51.454 9.51497 51.4475 9.47266 51.4442C9.43359 51.4377 9.40755 51.4344 9.39453 51.4344C9.38477 51.4344 9.36686 51.4344 9.34082 51.4344C9.31803 51.4312 9.29036 51.4296 9.25781 51.4296C9.22852 51.4296 9.19922 51.4296 9.16992 51.4296C9.14062 51.4263 9.11784 51.4247 9.10156 51.4247C9.0918 51.4247 9.07552 51.4263 9.05273 51.4296C9.0332 51.4296 9.01204 51.4296 8.98926 51.4296C8.96973 51.4296 8.95182 51.4312 8.93555 51.4344C8.91927 51.4344 8.90951 51.4344 8.90625 51.4344L8.83789 51.5126V51.6786C8.83789 51.8706 8.83138 52.0562 8.81836 52.2352C8.80534 52.411 8.79883 52.5949 8.79883 52.787C8.79883 52.8846 8.80697 52.9563 8.82324 53.0018C8.83952 53.0474 8.86556 53.08 8.90137 53.0995C8.93717 53.119 8.98275 53.1337 9.03809 53.1434C9.09342 53.1532 9.16178 53.1695 9.24316 53.1923C9.24967 53.1923 9.26107 53.1971 9.27734 53.2069C9.29362 53.2167 9.30501 53.2264 9.31152 53.2362H9.69238H10.0537C10.0602 53.2362 10.0749 53.2346 10.0977 53.2313C10.1204 53.2248 10.1449 53.2199 10.1709 53.2167C10.1969 53.2102 10.2197 53.2053 10.2393 53.202C10.262 53.1955 10.2767 53.1923 10.2832 53.1923H10.5176H10.6104C10.6169 53.1923 10.6283 53.1874 10.6445 53.1776C10.6608 53.1646 10.6771 53.1516 10.6934 53.1385C10.7129 53.1223 10.7292 53.1076 10.7422 53.0946C10.7552 53.0816 10.7633 53.0751 10.7666 53.0751C10.7894 53.0653 10.8073 53.0604 10.8203 53.0604C10.8366 53.0572 10.8496 53.0555 10.8594 53.0555C10.8691 53.0523 10.8789 53.0474 10.8887 53.0409C10.8984 53.0311 10.9082 53.0165 10.918 52.9969C10.9538 52.9449 10.9798 52.8912 10.9961 52.8358C11.0124 52.7805 11.0335 52.7251 11.0596 52.6698C11.0726 52.66 11.0889 52.6405 11.1084 52.6112C11.1279 52.5787 11.1393 52.5575 11.1426 52.5477C11.1458 52.5477 11.1556 52.5428 11.1719 52.5331C11.1882 52.5201 11.2044 52.507 11.2207 52.494C11.237 52.4777 11.2516 52.4631 11.2646 52.4501C11.2777 52.4338 11.2858 52.4224 11.2891 52.4159C11.2923 52.4061 11.2988 52.3931 11.3086 52.3768C11.3216 52.3573 11.3346 52.3378 11.3477 52.3182C11.3607 52.2955 11.3721 52.2759 11.3818 52.2596C11.3949 52.2401 11.403 52.2271 11.4062 52.2206C11.4062 52.2173 11.4111 52.2108 11.4209 52.201C11.4274 52.1978 11.4339 52.1929 11.4404 52.1864C11.4404 52.1799 11.4421 52.1766 11.4453 52.1766H11.4551C11.5039 52.1766 11.5332 52.1962 11.543 52.2352C11.5527 52.271 11.5576 52.3085 11.5576 52.3475V52.4501C11.5576 52.4663 11.5592 52.5054 11.5625 52.5673C11.5658 52.6291 11.5674 52.6958 11.5674 52.7675C11.5706 52.8358 11.5739 52.9009 11.5771 52.9628C11.5804 53.0246 11.582 53.0621 11.582 53.0751V53.0897C11.582 53.132 11.5739 53.1809 11.5576 53.2362C11.5413 53.2883 11.5186 53.3387 11.4893 53.3876C11.46 53.4364 11.4242 53.4771 11.3818 53.5096C11.3428 53.5422 11.3005 53.5601 11.2549 53.5634C11.2321 53.5601 11.1898 53.5568 11.1279 53.5536C11.0693 53.5503 11.0059 53.5471 10.9375 53.5438C10.8691 53.5406 10.804 53.5373 10.7422 53.5341C10.6803 53.5308 10.6364 53.5259 10.6104 53.5194H10.5176H10.4346C10.4183 53.5259 10.3809 53.5324 10.3223 53.5389C10.2637 53.5422 10.2002 53.5455 10.1318 53.5487C10.0667 53.552 10.0033 53.5552 9.94141 53.5585C9.88281 53.5617 9.84701 53.5634 9.83398 53.5634H7.9834C7.97363 53.5666 7.95736 53.5699 7.93457 53.5731C7.91504 53.5764 7.89225 53.578 7.86621 53.578C7.84342 53.5813 7.82064 53.5829 7.79785 53.5829C7.77507 53.5861 7.75879 53.5878 7.74902 53.5878C7.74902 53.5943 7.73763 53.5975 7.71484 53.5975C7.69206 53.5975 7.6709 53.5959 7.65137 53.5927C7.63184 53.5894 7.61882 53.5878 7.6123 53.5878C7.59928 53.5975 7.57324 53.6089 7.53418 53.6219C7.49512 53.635 7.46745 53.6415 7.45117 53.6415C7.4349 53.6415 7.40723 53.6382 7.36816 53.6317C7.33236 53.6252 7.29329 53.6171 7.25098 53.6073C7.20866 53.6008 7.16797 53.5927 7.12891 53.5829C7.08984 53.5764 7.06055 53.5699 7.04102 53.5634ZM13.4961 51.6298C13.4961 51.6753 13.5173 51.7079 13.5596 51.7274C13.6019 51.7469 13.641 51.7567 13.6768 51.7567H13.9355C13.9714 51.7567 14.0072 51.7583 14.043 51.7616C14.0788 51.7649 14.1146 51.7665 14.1504 51.7665C14.235 51.7665 14.3083 51.7535 14.3701 51.7274C14.432 51.6981 14.4629 51.6346 14.4629 51.537V51.454C14.4336 51.3042 14.3896 51.1561 14.3311 51.0096C14.2725 50.8599 14.2171 50.715 14.165 50.5751C14.1585 50.5523 14.1488 50.5279 14.1357 50.5018C14.126 50.4725 14.113 50.4465 14.0967 50.4237C14.0804 50.3977 14.0625 50.3765 14.043 50.3602C14.0234 50.344 14.0023 50.3358 13.9795 50.3358C13.9372 50.3358 13.903 50.3537 13.877 50.3895C13.8542 50.4253 13.8346 50.4677 13.8184 50.5165C13.8053 50.5653 13.7939 50.6158 13.7842 50.6678C13.7744 50.7167 13.763 50.7557 13.75 50.785C13.7402 50.8143 13.7223 50.8664 13.6963 50.9413C13.6735 51.0162 13.6491 51.0959 13.623 51.1805C13.597 51.2619 13.571 51.34 13.5449 51.4149C13.5221 51.4898 13.5059 51.5419 13.4961 51.5712V51.6298ZM12.3584 53.5389H12.334C12.3275 53.5389 12.3112 53.5422 12.2852 53.5487C12.2591 53.552 12.2298 53.5568 12.1973 53.5634C12.1647 53.5666 12.1338 53.5699 12.1045 53.5731C12.0785 53.5764 12.0622 53.578 12.0557 53.578H12.0264C12.0068 53.578 11.9906 53.5699 11.9775 53.5536C11.9645 53.5373 11.9548 53.5194 11.9482 53.4999C11.9417 53.4771 11.9385 53.4559 11.9385 53.4364C11.9352 53.4136 11.9336 53.399 11.9336 53.3925V53.3778C11.9336 53.3192 11.9531 53.2802 11.9922 53.2606C12.0345 53.2411 12.0752 53.2232 12.1143 53.2069C12.1208 53.2069 12.137 53.202 12.1631 53.1923C12.1891 53.1792 12.2168 53.1662 12.2461 53.1532C12.2786 53.1402 12.3079 53.1288 12.334 53.119C12.36 53.106 12.3763 53.0962 12.3828 53.0897C12.3861 53.0865 12.3958 53.0783 12.4121 53.0653C12.4284 53.049 12.4463 53.0311 12.4658 53.0116C12.4854 52.9921 12.5033 52.9725 12.5195 52.953C12.5391 52.9335 12.5553 52.9172 12.5684 52.9042C12.5716 52.8977 12.5765 52.8895 12.583 52.8798C12.596 52.8602 12.6025 52.8456 12.6025 52.8358C12.6025 52.8293 12.6058 52.8098 12.6123 52.7772C12.6221 52.7447 12.6302 52.7251 12.6367 52.7186C12.7246 52.5428 12.8125 52.3654 12.9004 52.1864C12.9883 52.0041 13.0713 51.8218 13.1494 51.6395C13.1592 51.6298 13.1722 51.6021 13.1885 51.5565C13.208 51.5077 13.221 51.4735 13.2275 51.454C13.2308 51.4475 13.2389 51.4279 13.252 51.3954C13.265 51.3596 13.278 51.3238 13.291 51.288C13.304 51.2489 13.3154 51.2131 13.3252 51.1805C13.3382 51.148 13.3447 51.1285 13.3447 51.1219C13.348 51.1122 13.3577 51.0894 13.374 51.0536C13.3936 51.0178 13.4131 50.9787 13.4326 50.9364C13.4554 50.8941 13.4749 50.8534 13.4912 50.8143C13.5107 50.7753 13.5238 50.7509 13.5303 50.7411C13.5563 50.6825 13.5807 50.6304 13.6035 50.5848C13.6296 50.536 13.654 50.479 13.6768 50.4139C13.6898 50.3879 13.7061 50.3586 13.7256 50.326C13.7484 50.2935 13.7695 50.2593 13.7891 50.2235C13.8086 50.1844 13.8249 50.147 13.8379 50.1112C13.8542 50.0754 13.8623 50.0412 13.8623 50.0087V49.9403C13.8623 49.9273 13.8574 49.9061 13.8477 49.8768C13.8411 49.8443 13.8379 49.8264 13.8379 49.8231C13.8379 49.8003 13.8509 49.771 13.877 49.7352C13.903 49.6994 13.9225 49.6766 13.9355 49.6669C13.9421 49.6636 13.9567 49.6571 13.9795 49.6473C14.0055 49.6376 14.0316 49.6262 14.0576 49.6132C14.0837 49.6001 14.1064 49.5887 14.126 49.579C14.1488 49.5692 14.1618 49.5627 14.165 49.5594C14.1715 49.5529 14.1846 49.5399 14.2041 49.5204C14.2236 49.5009 14.2448 49.4797 14.2676 49.4569C14.2936 49.4309 14.3164 49.4065 14.3359 49.3837C14.3587 49.3576 14.375 49.3397 14.3848 49.33C14.388 49.3267 14.3945 49.3169 14.4043 49.3007C14.4141 49.2811 14.4255 49.2632 14.4385 49.2469C14.4515 49.2274 14.4661 49.2111 14.4824 49.1981C14.4987 49.1818 14.5166 49.1753 14.5361 49.1786C14.5687 49.1884 14.5964 49.2177 14.6191 49.2665C14.6452 49.3153 14.6663 49.369 14.6826 49.4276C14.7021 49.483 14.7184 49.5383 14.7314 49.5936C14.7445 49.6457 14.7559 49.6815 14.7656 49.701C14.7689 49.7173 14.7738 49.7401 14.7803 49.7694C14.79 49.7987 14.7982 49.828 14.8047 49.8573C14.8145 49.8866 14.8226 49.9126 14.8291 49.9354C14.8356 49.9582 14.8389 49.9712 14.8389 49.9745C14.8421 49.9843 14.847 50.007 14.8535 50.0428C14.86 50.0787 14.8665 50.1177 14.873 50.16C14.8828 50.2024 14.891 50.2414 14.8975 50.2772C14.904 50.3098 14.9072 50.3293 14.9072 50.3358C14.9105 50.3456 14.9186 50.3765 14.9316 50.4286C14.9479 50.4807 14.9658 50.5409 14.9854 50.6093C15.0049 50.6776 15.0244 50.746 15.0439 50.8143C15.0635 50.8794 15.0798 50.9315 15.0928 50.9706C15.1188 51.0585 15.1514 51.1464 15.1904 51.2343C15.2295 51.3189 15.2588 51.4052 15.2783 51.493C15.2946 51.5679 15.3044 51.6281 15.3076 51.6737C15.3141 51.716 15.3304 51.7681 15.3564 51.83C15.3597 51.8365 15.3662 51.8511 15.376 51.8739C15.389 51.8934 15.402 51.9162 15.415 51.9423C15.4281 51.965 15.4395 51.9878 15.4492 52.0106C15.459 52.0334 15.4655 52.0497 15.4688 52.0594C15.4688 52.066 15.4704 52.0774 15.4736 52.0936C15.4769 52.1099 15.4801 52.1294 15.4834 52.1522C15.4899 52.1718 15.4948 52.1913 15.498 52.2108C15.5013 52.2271 15.5046 52.2385 15.5078 52.245C15.5078 52.2483 15.5111 52.2596 15.5176 52.2792C15.5241 52.2955 15.5322 52.315 15.542 52.3378C15.5518 52.3573 15.5599 52.3768 15.5664 52.3964C15.5762 52.4126 15.5827 52.4208 15.5859 52.4208C15.6022 52.5054 15.6234 52.5966 15.6494 52.6942C15.6755 52.7919 15.7161 52.8781 15.7715 52.953C15.7975 52.9921 15.8447 53.0246 15.9131 53.0507C15.9847 53.0767 16.0563 53.1027 16.1279 53.1288C16.2028 53.1548 16.2679 53.1841 16.3232 53.2167C16.3786 53.2492 16.4062 53.2915 16.4062 53.3436C16.4062 53.399 16.3916 53.4429 16.3623 53.4755C16.3363 53.5048 16.3021 53.5275 16.2598 53.5438C16.2174 53.5601 16.1702 53.5699 16.1182 53.5731C16.0661 53.5764 16.0173 53.578 15.9717 53.578H15.874H15.7715C15.7194 53.578 15.6283 53.5764 15.498 53.5731C15.3678 53.5699 15.2279 53.5666 15.0781 53.5634C14.9316 53.5568 14.7917 53.552 14.6582 53.5487C14.528 53.5422 14.4368 53.5389 14.3848 53.5389C14.349 53.5259 14.3278 53.5113 14.3213 53.495C14.3148 53.4755 14.3115 53.4478 14.3115 53.412V53.3778C14.3115 53.3713 14.3132 53.3648 14.3164 53.3583C14.3457 53.2964 14.3864 53.2557 14.4385 53.2362C14.4906 53.2134 14.5443 53.1955 14.5996 53.1825C14.6582 53.1695 14.7152 53.1548 14.7705 53.1385C14.8258 53.119 14.8714 53.08 14.9072 53.0214L14.917 52.9872L14.9072 52.953C14.904 52.9237 14.8958 52.883 14.8828 52.8309C14.873 52.7788 14.8617 52.7268 14.8486 52.6747C14.8389 52.6226 14.8291 52.577 14.8193 52.538C14.8096 52.4956 14.8031 52.4712 14.7998 52.4647C14.7933 52.4582 14.7835 52.4419 14.7705 52.4159C14.7575 52.3899 14.7428 52.3606 14.7266 52.328C14.7135 52.2955 14.6989 52.2645 14.6826 52.2352C14.6696 52.2027 14.6582 52.1783 14.6484 52.162C14.6126 52.1066 14.5622 52.0741 14.4971 52.0643C14.4352 52.0513 14.3734 52.0448 14.3115 52.0448H14.2139C14.0967 52.0448 13.986 52.0529 13.8818 52.0692C13.7809 52.0855 13.6735 52.0936 13.5596 52.0936C13.5368 52.0936 13.514 52.092 13.4912 52.0887C13.4684 52.0855 13.4456 52.0839 13.4229 52.0839C13.4001 52.1066 13.3887 52.1246 13.3887 52.1376C13.3822 52.1408 13.374 52.1538 13.3643 52.1766C13.3577 52.1962 13.3496 52.219 13.3398 52.245C13.3333 52.2678 13.3252 52.2906 13.3154 52.3134C13.3089 52.3329 13.3057 52.3443 13.3057 52.3475C13.3057 52.354 13.2943 52.3736 13.2715 52.4061C13.252 52.4387 13.2373 52.4582 13.2275 52.4647C13.1885 52.5461 13.1657 52.6307 13.1592 52.7186C13.1527 52.8033 13.1494 52.8912 13.1494 52.9823C13.1494 53.0344 13.1657 53.0734 13.1982 53.0995C13.2308 53.1223 13.2715 53.1402 13.3203 53.1532C13.3691 53.1662 13.4212 53.1776 13.4766 53.1874C13.5319 53.1939 13.584 53.2053 13.6328 53.2216C13.6816 53.2346 13.7223 53.2557 13.7549 53.285C13.7874 53.3143 13.8037 53.3566 13.8037 53.412C13.8037 53.5194 13.7533 53.5861 13.6523 53.6122C13.6393 53.6122 13.6149 53.6106 13.5791 53.6073C13.5465 53.604 13.5124 53.6008 13.4766 53.5975C13.4408 53.5943 13.4066 53.591 13.374 53.5878C13.3415 53.5845 13.3187 53.5813 13.3057 53.578H12.959H12.8223C12.8125 53.578 12.7865 53.5764 12.7441 53.5731C12.7018 53.5699 12.6546 53.5666 12.6025 53.5634C12.5505 53.5568 12.5033 53.552 12.4609 53.5487C12.4186 53.5422 12.3926 53.5389 12.3828 53.5389H12.3584ZM17.3291 53.5634C17.3226 53.5634 17.3031 53.5666 17.2705 53.5731C17.2412 53.5829 17.2249 53.5878 17.2217 53.5878H17.2021C17.1598 53.5878 17.1175 53.5861 17.0752 53.5829C17.0361 53.5796 17.0003 53.5715 16.9678 53.5585C16.9385 53.5455 16.9141 53.5259 16.8945 53.4999C16.875 53.4738 16.8652 53.438 16.8652 53.3925V53.3192C16.8685 53.2867 16.9076 53.2639 16.9824 53.2509C17.0605 53.2346 17.1468 53.2248 17.2412 53.2216C17.3356 53.215 17.4251 53.2102 17.5098 53.2069C17.5944 53.2004 17.6449 53.1874 17.6611 53.1678C17.6644 53.1516 17.6676 53.1369 17.6709 53.1239C17.6742 53.1109 17.6774 53.0995 17.6807 53.0897C17.6839 53.08 17.6855 53.0718 17.6855 53.0653C17.6855 53.0523 17.6872 53.0328 17.6904 53.0067C17.6969 52.9774 17.7018 52.9481 17.7051 52.9188C17.7116 52.8863 17.7165 52.857 17.7197 52.8309C17.723 52.8049 17.7246 52.787 17.7246 52.7772C17.7246 52.7512 17.7262 52.6975 17.7295 52.6161C17.7327 52.5315 17.736 52.4403 17.7393 52.3427C17.7425 52.245 17.7458 52.1506 17.749 52.0594C17.7523 51.9683 17.7539 51.9032 17.7539 51.8641C17.7539 51.8479 17.7539 51.8186 17.7539 51.7762C17.7572 51.7307 17.7588 51.6818 17.7588 51.6298C17.7588 51.5777 17.7572 51.5305 17.7539 51.4882C17.7539 51.4458 17.7539 51.4133 17.7539 51.3905L17.7783 51.327C17.7783 51.3238 17.7799 51.2912 17.7832 51.2294C17.7865 51.1643 17.7897 51.0878 17.793 50.9999C17.7995 50.912 17.8044 50.8225 17.8076 50.7313C17.8141 50.6402 17.8174 50.5653 17.8174 50.5067V50.1747V49.828C17.8174 49.815 17.8141 49.7955 17.8076 49.7694C17.8044 49.7434 17.8011 49.7173 17.7979 49.6913C17.7946 49.662 17.7897 49.6376 17.7832 49.618C17.7799 49.5953 17.7783 49.5806 17.7783 49.5741C17.762 49.5253 17.7295 49.4911 17.6807 49.4716C17.6351 49.4488 17.5798 49.4325 17.5146 49.4227C17.4528 49.413 17.3861 49.4081 17.3145 49.4081C17.2461 49.4048 17.1826 49.3983 17.124 49.3885C17.0654 49.3788 17.0166 49.3625 16.9775 49.3397C16.9417 49.3137 16.9238 49.2746 16.9238 49.2225C16.9238 49.1932 16.9336 49.1672 16.9531 49.1444C16.9727 49.1184 16.9954 49.0956 17.0215 49.076C17.0475 49.0565 17.0752 49.0419 17.1045 49.0321C17.137 49.0191 17.1647 49.0126 17.1875 49.0126C17.2331 49.0126 17.2884 49.0191 17.3535 49.0321C17.4186 49.0451 17.4691 49.0484 17.5049 49.0419C17.5146 49.0419 17.5342 49.0402 17.5635 49.037C17.5928 49.0337 17.6237 49.0305 17.6562 49.0272C17.6921 49.024 17.7246 49.0207 17.7539 49.0175C17.7865 49.0142 17.8076 49.0126 17.8174 49.0126C17.8337 49.0126 17.8711 49.0142 17.9297 49.0175C17.9883 49.0207 18.0501 49.024 18.1152 49.0272C18.1836 49.0305 18.2471 49.0354 18.3057 49.0419C18.3643 49.0451 18.4017 49.0484 18.418 49.0516H18.4766H18.5205C18.527 49.0484 18.5417 49.0451 18.5645 49.0419C18.5872 49.0354 18.61 49.0305 18.6328 49.0272C18.6589 49.024 18.6816 49.0207 18.7012 49.0175C18.724 49.0142 18.737 49.0126 18.7402 49.0126H18.9844C18.9876 49.0126 18.999 49.0109 19.0186 49.0077C19.0381 49.0044 19.0576 49.0012 19.0771 48.9979C19.0999 48.9947 19.1195 48.9914 19.1357 48.9882C19.1553 48.9849 19.1667 48.9833 19.1699 48.9833H19.1895C19.196 48.9833 19.2008 48.9833 19.2041 48.9833C19.2106 48.98 19.2171 48.9784 19.2236 48.9784C19.2627 48.9784 19.3018 48.98 19.3408 48.9833C19.3799 48.9865 19.4157 48.9947 19.4482 49.0077C19.4808 49.0175 19.5068 49.0354 19.5264 49.0614C19.5492 49.0874 19.5605 49.1233 19.5605 49.1688C19.5605 49.1786 19.5573 49.1932 19.5508 49.2128C19.5443 49.229 19.541 49.2404 19.541 49.2469C19.515 49.2632 19.4743 49.2876 19.4189 49.3202C19.3636 49.3495 19.318 49.3674 19.2822 49.3739C19.2692 49.3739 19.2399 49.3772 19.1943 49.3837C19.152 49.3869 19.1064 49.3918 19.0576 49.3983C19.0088 49.4016 18.9632 49.4065 18.9209 49.413C18.8786 49.4162 18.8525 49.4178 18.8428 49.4178C18.8167 49.4211 18.7939 49.4325 18.7744 49.452C18.7581 49.4683 18.7467 49.4895 18.7402 49.5155C18.7109 49.662 18.6914 49.8068 18.6816 49.9501C18.6751 50.0933 18.6719 50.2398 18.6719 50.3895V50.8583V51.0145C18.6719 51.0178 18.6686 51.0373 18.6621 51.0731C18.6589 51.1057 18.654 51.1431 18.6475 51.1854C18.6442 51.2245 18.6393 51.2619 18.6328 51.2977C18.6296 51.3335 18.6279 51.3563 18.6279 51.3661V52.1083V52.3915C18.6279 52.4012 18.6263 52.4224 18.623 52.455C18.6198 52.4875 18.6165 52.5217 18.6133 52.5575C18.61 52.5933 18.6068 52.6259 18.6035 52.6552C18.6003 52.6844 18.5986 52.7024 18.5986 52.7089V52.7333V52.7772C18.5986 52.7837 18.6035 52.8016 18.6133 52.8309C18.623 52.857 18.6279 52.8733 18.6279 52.8798C18.6279 52.8863 18.623 52.8977 18.6133 52.9139C18.6035 52.927 18.5986 52.9384 18.5986 52.9481C18.5954 52.9579 18.5938 52.9677 18.5938 52.9774C18.5905 52.9839 18.5889 52.9921 18.5889 53.0018C18.5889 53.0083 18.5889 53.0149 18.5889 53.0214C18.5889 53.0832 18.6068 53.1418 18.6426 53.1971C18.6816 53.2492 18.7305 53.2753 18.7891 53.2753H18.8184C18.9128 53.259 19.0104 53.2443 19.1113 53.2313C19.2155 53.215 19.3148 53.2069 19.4092 53.2069H20.2344C20.2474 53.2069 20.2686 53.2053 20.2979 53.202C20.3304 53.1988 20.3613 53.1955 20.3906 53.1923C20.4199 53.189 20.446 53.1858 20.4688 53.1825C20.4915 53.176 20.5046 53.1711 20.5078 53.1678C20.5143 53.1646 20.5273 53.1548 20.5469 53.1385C20.5664 53.119 20.5876 53.0979 20.6104 53.0751C20.6364 53.049 20.6592 53.0246 20.6787 53.0018C20.7015 52.979 20.7178 52.9611 20.7275 52.9481C20.7275 52.9449 20.7308 52.9367 20.7373 52.9237C20.7438 52.9074 20.7503 52.8928 20.7568 52.8798C20.7633 52.8635 20.7699 52.8488 20.7764 52.8358C20.7829 52.8228 20.7878 52.8147 20.791 52.8114C20.791 52.8081 20.7959 52.8033 20.8057 52.7968C20.8187 52.787 20.8317 52.7772 20.8447 52.7675C20.8577 52.7577 20.8691 52.7496 20.8789 52.743C20.8919 52.7365 20.9001 52.7333 20.9033 52.7333L20.9277 52.7089C20.9342 52.7056 20.9473 52.6877 20.9668 52.6552C20.9863 52.6193 20.9961 52.5982 20.9961 52.5917C21.0091 52.5787 21.0254 52.5591 21.0449 52.5331C21.0677 52.5038 21.0905 52.4745 21.1133 52.4452C21.1393 52.4126 21.1621 52.3833 21.1816 52.3573C21.2012 52.328 21.2158 52.3085 21.2256 52.2987C21.2386 52.2824 21.2467 52.2727 21.25 52.2694C21.2565 52.2662 21.2728 52.2645 21.2988 52.2645C21.3509 52.2645 21.3916 52.2857 21.4209 52.328C21.4502 52.3671 21.4714 52.4143 21.4844 52.4696C21.4974 52.5249 21.5039 52.5819 21.5039 52.6405C21.5072 52.6958 21.5088 52.7414 21.5088 52.7772C21.5088 52.7935 21.5088 52.813 21.5088 52.8358C21.5088 52.8586 21.5088 52.8814 21.5088 52.9042C21.5088 52.927 21.5072 52.9465 21.5039 52.9628C21.5039 52.979 21.5039 52.9872 21.5039 52.9872C21.5039 52.9937 21.499 53.0116 21.4893 53.0409C21.4795 53.0669 21.4746 53.0832 21.4746 53.0897C21.4681 53.1646 21.4648 53.2297 21.4648 53.285C21.4648 53.3371 21.4567 53.3827 21.4404 53.4218C21.4274 53.4608 21.4014 53.4934 21.3623 53.5194C21.3265 53.5455 21.2663 53.5682 21.1816 53.5878C21.1523 53.591 21.0986 53.5927 21.0205 53.5927C20.9424 53.5959 20.8577 53.5975 20.7666 53.5975C20.6787 53.5975 20.5941 53.5975 20.5127 53.5975C20.4346 53.5975 20.3792 53.5975 20.3467 53.5975C20.2881 53.5975 20.2132 53.5975 20.1221 53.5975C20.0309 53.5975 19.9414 53.5975 19.8535 53.5975C19.7689 53.5975 19.694 53.5959 19.6289 53.5927C19.5638 53.5927 19.5296 53.591 19.5264 53.5878C19.5101 53.5878 19.4775 53.5861 19.4287 53.5829C19.3831 53.5829 19.3311 53.5813 19.2725 53.578C19.2171 53.578 19.1618 53.5764 19.1064 53.5731C19.0544 53.5699 19.0137 53.5666 18.9844 53.5634C18.9811 53.5634 18.9714 53.5617 18.9551 53.5585C18.9388 53.5552 18.9209 53.552 18.9014 53.5487C18.8818 53.5455 18.8639 53.5422 18.8477 53.5389C18.8314 53.5357 18.8216 53.5324 18.8184 53.5292H18.7891H18.7402C18.724 53.5324 18.6914 53.5357 18.6426 53.5389C18.5938 53.5422 18.5417 53.5455 18.4863 53.5487C18.431 53.552 18.3773 53.5552 18.3252 53.5585C18.2764 53.5617 18.2454 53.5634 18.2324 53.5634H17.9053C17.8988 53.5634 17.876 53.5666 17.8369 53.5731C17.8011 53.5829 17.7816 53.5878 17.7783 53.5878C17.7555 53.6008 17.7279 53.6073 17.6953 53.6073C17.666 53.6106 17.6432 53.6122 17.627 53.6122C17.6172 53.6122 17.5977 53.6089 17.5684 53.6024C17.5391 53.5992 17.5065 53.5943 17.4707 53.5878C17.4382 53.5813 17.4072 53.5747 17.3779 53.5682C17.3486 53.565 17.3324 53.5634 17.3291 53.5634ZM22.4951 49.6962C22.4854 49.6343 22.4723 49.5855 22.4561 49.5497C22.4398 49.5106 22.4186 49.4797 22.3926 49.4569C22.3665 49.4309 22.334 49.4081 22.2949 49.3885C22.2559 49.369 22.207 49.3446 22.1484 49.3153C22.1126 49.299 22.0752 49.2876 22.0361 49.2811C22.0003 49.2714 21.9775 49.2632 21.9678 49.2567C21.9482 49.2339 21.9336 49.203 21.9238 49.1639C21.9141 49.1216 21.9092 49.0907 21.9092 49.0712C21.9092 49.0647 21.9092 49.0516 21.9092 49.0321C21.9124 49.0093 21.9206 48.993 21.9336 48.9833C21.9401 48.98 21.958 48.9751 21.9873 48.9686C22.0166 48.9621 22.0394 48.9556 22.0557 48.9491C22.0882 48.9458 22.124 48.9426 22.1631 48.9393C22.2054 48.9361 22.2445 48.9344 22.2803 48.9344C22.3356 48.9344 22.3926 48.9393 22.4512 48.9491C22.5098 48.9556 22.5863 48.967 22.6807 48.9833H22.8662C22.9281 48.9833 22.9867 48.9833 23.042 48.9833C23.0973 48.9833 23.151 48.9816 23.2031 48.9784C23.2552 48.9751 23.3073 48.9719 23.3594 48.9686C23.4115 48.9654 23.4684 48.9589 23.5303 48.9491C23.54 48.9491 23.5596 48.9442 23.5889 48.9344C23.6182 48.9247 23.6361 48.9198 23.6426 48.9198H23.6768C23.7516 48.9198 23.82 48.9328 23.8818 48.9589C23.9469 48.9849 23.9795 49.0386 23.9795 49.12C23.9795 49.1753 23.96 49.2177 23.9209 49.2469C23.8818 49.2762 23.8346 49.3023 23.7793 49.3251C23.7272 49.3479 23.6735 49.3706 23.6182 49.3934C23.5661 49.413 23.5254 49.4406 23.4961 49.4764C23.4635 49.5122 23.4375 49.5562 23.418 49.6083C23.3984 49.6571 23.3822 49.7108 23.3691 49.7694C23.3594 49.8247 23.3529 49.8801 23.3496 49.9354C23.3464 49.9908 23.3447 50.0396 23.3447 50.0819C23.3447 50.134 23.3512 50.1763 23.3643 50.2089C23.3805 50.2414 23.3887 50.2805 23.3887 50.326C23.3887 50.3358 23.387 50.3505 23.3838 50.37C23.3838 50.3863 23.3789 50.3977 23.3691 50.4042C23.3691 50.4107 23.3675 50.4286 23.3643 50.4579C23.361 50.4872 23.3577 50.5197 23.3545 50.5555C23.3545 50.5881 23.3529 50.619 23.3496 50.6483C23.3464 50.6776 23.3447 50.6971 23.3447 50.7069V51.1366C23.3447 51.1529 23.3382 51.1805 23.3252 51.2196C23.3154 51.2587 23.3089 51.2847 23.3057 51.2977V51.3514V51.4003C23.3057 51.4068 23.3073 51.4231 23.3105 51.4491C23.3171 51.4751 23.3219 51.5028 23.3252 51.5321C23.3317 51.5614 23.3366 51.5891 23.3398 51.6151C23.3431 51.6412 23.3447 51.6574 23.3447 51.6639C23.348 51.6802 23.3496 51.7095 23.3496 51.7518C23.3529 51.7909 23.3561 51.8332 23.3594 51.8788C23.3626 51.9211 23.3643 51.9618 23.3643 52.0009C23.3675 52.0399 23.3691 52.0676 23.3691 52.0839C23.3724 52.1099 23.3789 52.1441 23.3887 52.1864C23.3984 52.2255 23.4082 52.2662 23.418 52.3085C23.431 52.3508 23.444 52.3915 23.457 52.4305C23.4701 52.4696 23.4831 52.5005 23.4961 52.5233C23.5091 52.5559 23.5319 52.5966 23.5645 52.6454C23.6003 52.6942 23.6393 52.743 23.6816 52.7919C23.724 52.8374 23.7663 52.8781 23.8086 52.9139C23.8542 52.9497 23.8965 52.9725 23.9355 52.9823C23.9421 52.9823 23.9567 52.9888 23.9795 53.0018C24.0023 53.0116 24.0218 53.0165 24.0381 53.0165C24.0609 53.0165 24.0723 53.0181 24.0723 53.0214C24.1081 53.0246 24.1406 53.0328 24.1699 53.0458C24.1992 53.0555 24.2269 53.0669 24.2529 53.08C24.279 53.0897 24.3066 53.0995 24.3359 53.1093C24.3652 53.119 24.3978 53.1239 24.4336 53.1239H24.502C24.5052 53.1206 24.5166 53.1141 24.5361 53.1044C24.5557 53.0946 24.5752 53.0848 24.5947 53.0751C24.6175 53.0653 24.637 53.0572 24.6533 53.0507C24.6729 53.0441 24.6842 53.0409 24.6875 53.0409H24.7656C24.7982 53.0311 24.8324 53.0214 24.8682 53.0116C24.8942 53.0051 24.9219 53.0002 24.9512 52.9969C24.9805 52.9904 25.0033 52.9856 25.0195 52.9823C25.1074 52.953 25.1855 52.8993 25.2539 52.8212C25.3255 52.7398 25.3825 52.6665 25.4248 52.6014C25.4281 52.5949 25.4329 52.5803 25.4395 52.5575C25.4492 52.5347 25.4574 52.5119 25.4639 52.4891C25.4736 52.4631 25.4818 52.4387 25.4883 52.4159C25.4948 52.3931 25.498 52.3785 25.498 52.3719C25.5371 52.271 25.5664 52.1652 25.5859 52.0546C25.6055 51.9439 25.6185 51.8316 25.625 51.7177C25.6315 51.6005 25.6364 51.4849 25.6396 51.371C25.6429 51.257 25.6494 51.1464 25.6592 51.0389C25.6592 51.0357 25.6608 51.0259 25.6641 51.0096C25.6673 50.9901 25.6689 50.9706 25.6689 50.951C25.6722 50.9283 25.6755 50.9087 25.6787 50.8925C25.682 50.8729 25.6836 50.8599 25.6836 50.8534V50.6483V50.4286C25.6803 50.4025 25.6755 50.3553 25.6689 50.287C25.6624 50.2186 25.6543 50.1454 25.6445 50.0673C25.638 49.9891 25.6315 49.9159 25.625 49.8475C25.6217 49.7759 25.6201 49.7255 25.6201 49.6962C25.6136 49.6799 25.6006 49.649 25.5811 49.6034C25.5615 49.5546 25.5452 49.5236 25.5322 49.5106C25.529 49.4943 25.5241 49.4781 25.5176 49.4618C25.5111 49.4423 25.5046 49.4325 25.498 49.4325C25.4753 49.4097 25.4541 49.3983 25.4346 49.3983C25.4183 49.3983 25.4036 49.3999 25.3906 49.4032C25.3809 49.4065 25.3695 49.4081 25.3564 49.4081C25.3402 49.4081 25.3255 49.4048 25.3125 49.3983C25.2311 49.382 25.1562 49.3625 25.0879 49.3397C25.0228 49.3169 24.9626 49.2697 24.9072 49.1981C24.9007 49.1818 24.8958 49.1705 24.8926 49.1639C24.8926 49.1574 24.8926 49.1428 24.8926 49.12C24.8926 49.1135 24.8942 49.107 24.8975 49.1005C24.9007 49.0907 24.904 49.0826 24.9072 49.076C24.9593 49.0109 25.0228 48.9719 25.0977 48.9589C25.1725 48.9426 25.2507 48.9344 25.332 48.9344C25.3906 48.9344 25.4492 48.9377 25.5078 48.9442C25.5664 48.9475 25.6234 48.9491 25.6787 48.9491C25.7048 48.9491 25.7422 48.9442 25.791 48.9344C25.8431 48.9247 25.887 48.9198 25.9229 48.9198H26.2256C26.2549 48.9198 26.2891 48.9182 26.3281 48.9149C26.3704 48.9117 26.4128 48.91 26.4551 48.91C26.5202 48.91 26.5837 48.9149 26.6455 48.9247C26.7074 48.9344 26.7594 48.954 26.8018 48.9833C26.8083 48.993 26.8115 49.0109 26.8115 49.037C26.8148 49.063 26.8164 49.0793 26.8164 49.0858C26.8164 49.1509 26.8001 49.2014 26.7676 49.2372C26.7383 49.2697 26.6992 49.2958 26.6504 49.3153C26.6048 49.3316 26.5544 49.3446 26.499 49.3544C26.4469 49.3641 26.3981 49.3788 26.3525 49.3983C26.3005 49.4211 26.2581 49.4569 26.2256 49.5057C26.193 49.5546 26.1768 49.6083 26.1768 49.6669C26.1768 49.719 26.1816 49.7645 26.1914 49.8036C26.2044 49.8427 26.2109 49.8882 26.2109 49.9403V50.0233C26.2109 50.0331 26.2044 50.0542 26.1914 50.0868C26.1816 50.1193 26.1768 50.1372 26.1768 50.1405V50.2626V50.5458C26.1735 50.5816 26.1702 50.6434 26.167 50.7313C26.1637 50.8192 26.1589 50.9136 26.1523 51.0145C26.1491 51.1122 26.1458 51.205 26.1426 51.2928C26.1393 51.3807 26.1361 51.4426 26.1328 51.4784C26.1165 51.5109 26.1051 51.5435 26.0986 51.576C26.0921 51.6053 26.0872 51.6363 26.084 51.6688C26.0807 51.6981 26.0775 51.7274 26.0742 51.7567C26.0742 51.786 26.0693 51.8169 26.0596 51.8495C26.0563 51.8593 26.0514 51.8772 26.0449 51.9032C26.0384 51.926 26.0303 51.952 26.0205 51.9813C26.014 52.0106 26.0075 52.0383 26.001 52.0643C25.9945 52.0871 25.9912 52.1018 25.9912 52.1083C25.9847 52.1148 25.9798 52.1311 25.9766 52.1571C25.9733 52.1799 25.9701 52.2043 25.9668 52.2303C25.9668 52.2531 25.9635 52.2759 25.957 52.2987C25.9538 52.3182 25.9505 52.328 25.9473 52.328C25.9473 52.3378 25.9359 52.3606 25.9131 52.3964C25.8903 52.4289 25.8773 52.4484 25.874 52.455C25.8675 52.4615 25.8561 52.4826 25.8398 52.5184C25.8236 52.5542 25.804 52.5933 25.7812 52.6356C25.7617 52.6779 25.7422 52.717 25.7227 52.7528C25.7031 52.7886 25.6901 52.8114 25.6836 52.8212C25.625 52.9318 25.5485 53.0311 25.4541 53.119C25.363 53.2069 25.2653 53.2964 25.1611 53.3876C25.1481 53.3973 25.1286 53.412 25.1025 53.4315C25.0765 53.4478 25.0488 53.4657 25.0195 53.4852C24.9935 53.5048 24.9691 53.5227 24.9463 53.5389C24.9235 53.552 24.9105 53.5601 24.9072 53.5634H24.7656C24.7038 53.5699 24.6484 53.5764 24.5996 53.5829C24.554 53.5927 24.5085 53.6008 24.4629 53.6073C24.4173 53.6171 24.3701 53.6252 24.3213 53.6317C24.2725 53.6382 24.2171 53.6415 24.1553 53.6415H23.8623C23.8265 53.6252 23.7891 53.6138 23.75 53.6073C23.7109 53.6008 23.6719 53.5943 23.6328 53.5878C23.597 53.5845 23.5612 53.578 23.5254 53.5682C23.4896 53.5617 23.4554 53.5487 23.4229 53.5292C23.4131 53.5259 23.3919 53.5145 23.3594 53.495C23.3268 53.4722 23.2894 53.4462 23.2471 53.4169C23.208 53.3876 23.1689 53.3599 23.1299 53.3339C23.0908 53.3046 23.0615 53.2802 23.042 53.2606L23.0078 53.2362C22.9818 53.1939 22.9541 53.1581 22.9248 53.1288C22.8955 53.0962 22.8662 53.0653 22.8369 53.036C22.8076 53.0067 22.7783 52.9758 22.749 52.9432C22.723 52.9074 22.7002 52.8667 22.6807 52.8212C22.6123 52.6649 22.5635 52.4973 22.5342 52.3182C22.5081 52.1359 22.4951 51.9569 22.4951 51.7811C22.4919 51.7421 22.4886 51.6884 22.4854 51.62C22.4854 51.5484 22.4854 51.467 22.4854 51.3759C22.4854 51.2815 22.4854 51.1805 22.4854 51.0731C22.4854 50.9657 22.4854 50.855 22.4854 50.7411C22.4854 50.6304 22.4854 50.5214 22.4854 50.4139C22.4854 50.3065 22.4854 50.2072 22.4854 50.1161C22.4854 50.0217 22.4854 49.9387 22.4854 49.8671C22.4886 49.7922 22.4919 49.7352 22.4951 49.6962ZM30.0732 49.6766C30.0993 49.6636 30.1172 49.6408 30.127 49.6083C30.1367 49.5757 30.1416 49.5432 30.1416 49.5106C30.1416 49.4423 30.1156 49.3951 30.0635 49.369C30.0146 49.3397 29.9593 49.3186 29.8975 49.3055C29.8389 49.2893 29.7835 49.273 29.7314 49.2567C29.6826 49.2372 29.6582 49.203 29.6582 49.1542C29.6582 49.1379 29.6647 49.1249 29.6777 49.1151C29.6908 49.1021 29.707 49.0923 29.7266 49.0858C29.7461 49.076 29.7656 49.0679 29.7852 49.0614C29.8079 49.0549 29.8275 49.0484 29.8438 49.0419C29.86 49.0354 29.8861 49.0288 29.9219 49.0223C29.9609 49.0158 29.9837 49.0126 29.9902 49.0126H30.8496C30.9082 48.9865 30.9652 48.9719 31.0205 48.9686C31.0758 48.9621 31.1312 48.9589 31.1865 48.9589C31.2288 48.9589 31.2679 48.9605 31.3037 48.9637C31.3428 48.9637 31.3753 48.9686 31.4014 48.9784C31.4307 48.9882 31.4535 49.0061 31.4697 49.0321C31.486 49.0581 31.4941 49.0956 31.4941 49.1444C31.4941 49.2128 31.4746 49.2649 31.4355 49.3007C31.3997 49.3365 31.3542 49.3641 31.2988 49.3837C31.2435 49.3999 31.1849 49.413 31.123 49.4227C31.0645 49.4325 31.0124 49.4439 30.9668 49.4569C30.8203 49.509 30.6901 49.579 30.5762 49.6669C30.4655 49.7515 30.3597 49.8557 30.2588 49.9794C30.249 49.9891 30.2311 50.0103 30.2051 50.0428C30.179 50.0721 30.1497 50.1047 30.1172 50.1405C30.0879 50.1763 30.0602 50.2105 30.0342 50.243C30.0081 50.2723 29.9902 50.2919 29.9805 50.3016C29.9674 50.3179 29.9528 50.3374 29.9365 50.3602C29.9202 50.383 29.9007 50.4025 29.8779 50.4188C29.8356 50.4546 29.7949 50.5002 29.7559 50.5555C29.7168 50.6109 29.6842 50.6646 29.6582 50.7167C29.6452 50.7395 29.6338 50.7606 29.624 50.7802C29.6175 50.7997 29.6143 50.8257 29.6143 50.8583C29.6143 50.9266 29.6322 50.9983 29.668 51.0731C29.7038 51.148 29.738 51.218 29.7705 51.2831C29.7835 51.3026 29.7998 51.3319 29.8193 51.371C29.8389 51.4068 29.8584 51.4426 29.8779 51.4784C29.8975 51.5142 29.9137 51.5468 29.9268 51.576C29.943 51.6053 29.9528 51.6233 29.9561 51.6298C29.9593 51.6363 29.9707 51.6558 29.9902 51.6884C30.013 51.7177 30.0374 51.7518 30.0635 51.7909C30.0895 51.8267 30.1123 51.8609 30.1318 51.8934C30.1546 51.926 30.1693 51.9471 30.1758 51.9569L30.293 52.1766C30.332 52.2678 30.3727 52.3589 30.415 52.4501C30.4574 52.538 30.5029 52.6242 30.5518 52.7089C30.6006 52.7902 30.6559 52.8684 30.7178 52.9432C30.7796 53.0181 30.8512 53.0897 30.9326 53.1581C30.9619 53.1809 30.9993 53.2004 31.0449 53.2167C31.0905 53.2297 31.1344 53.2443 31.1768 53.2606C31.2223 53.2769 31.2598 53.2997 31.2891 53.329C31.3216 53.355 31.3379 53.3941 31.3379 53.4462C31.3379 53.5113 31.3167 53.552 31.2744 53.5682C31.2354 53.5878 31.1898 53.5975 31.1377 53.5975C31.1084 53.5975 31.0775 53.5959 31.0449 53.5927C31.0156 53.5894 30.9896 53.5878 30.9668 53.5878C30.9538 53.5943 30.9212 53.5992 30.8691 53.6024C30.8171 53.6089 30.7601 53.6154 30.6982 53.6219C30.6396 53.6285 30.5843 53.6333 30.5322 53.6366C30.4801 53.6399 30.4476 53.6415 30.4346 53.6415H30.4102C30.4069 53.6415 30.3955 53.6399 30.376 53.6366C30.3564 53.6333 30.3353 53.6285 30.3125 53.6219C30.293 53.6154 30.2718 53.6089 30.249 53.6024C30.2295 53.5992 30.2181 53.5943 30.2148 53.5878C30.1986 53.5878 30.1644 53.5861 30.1123 53.5829C30.0635 53.5796 30.0098 53.5764 29.9512 53.5731C29.8958 53.5731 29.8438 53.5715 29.7949 53.5682C29.7461 53.565 29.7152 53.5634 29.7021 53.5634C29.6891 53.5634 29.6615 53.5601 29.6191 53.5536C29.5801 53.5438 29.554 53.5357 29.541 53.5292V53.495C29.541 53.4429 29.5524 53.4071 29.5752 53.3876C29.6012 53.368 29.6273 53.3518 29.6533 53.3387C29.6826 53.3225 29.7087 53.3029 29.7314 53.2802C29.7575 53.2574 29.7705 53.2167 29.7705 53.1581C29.7705 53.1255 29.7607 53.0734 29.7412 53.0018C29.7217 52.9302 29.694 52.8521 29.6582 52.7675C29.6257 52.6796 29.5882 52.59 29.5459 52.4989C29.5068 52.4078 29.4645 52.3247 29.4189 52.2499C29.3766 52.175 29.3359 52.1132 29.2969 52.0643C29.2578 52.0155 29.2236 51.9911 29.1943 51.9911C29.139 51.9911 29.0934 52.0074 29.0576 52.0399C29.0218 52.0692 28.9909 52.1066 28.9648 52.1522C28.9388 52.1945 28.916 52.2401 28.8965 52.2889C28.877 52.3378 28.8574 52.3801 28.8379 52.4159C28.8281 52.4322 28.8037 52.4712 28.7646 52.5331C28.7256 52.5917 28.6816 52.6568 28.6328 52.7284C28.5872 52.8 28.5433 52.8667 28.501 52.9286C28.4619 52.9904 28.4375 53.0279 28.4277 53.0409C28.4212 53.0441 28.4131 53.0555 28.4033 53.0751C28.3968 53.0913 28.3903 53.1027 28.3838 53.1093V53.1434C28.3838 53.189 28.4033 53.2216 28.4424 53.2411C28.4814 53.2606 28.527 53.2785 28.5791 53.2948C28.6312 53.3078 28.6833 53.3257 28.7354 53.3485C28.7907 53.368 28.833 53.4006 28.8623 53.4462C28.8623 53.4885 28.8509 53.5178 28.8281 53.5341C28.8086 53.5471 28.7842 53.5568 28.7549 53.5634H27.3877C27.3617 53.5634 27.3454 53.5536 27.3389 53.5341C27.3356 53.5113 27.334 53.495 27.334 53.4852V53.4462C27.373 53.4006 27.417 53.3632 27.4658 53.3339C27.5179 53.3046 27.57 53.2785 27.6221 53.2557C27.6774 53.233 27.7327 53.2118 27.7881 53.1923C27.8434 53.1695 27.8955 53.1418 27.9443 53.1093C27.9574 53.0962 27.9834 53.0718 28.0225 53.036C28.0615 52.9969 28.1022 52.9563 28.1445 52.9139C28.1901 52.8716 28.2324 52.8309 28.2715 52.7919C28.3138 52.7528 28.3431 52.7251 28.3594 52.7089C28.444 52.6112 28.5156 52.5103 28.5742 52.4061C28.6361 52.2987 28.6963 52.1897 28.7549 52.079C28.7614 52.0692 28.776 52.0546 28.7988 52.035C28.8216 52.0122 28.8346 51.9976 28.8379 51.9911C28.8477 51.9781 28.8607 51.9602 28.877 51.9374C28.8965 51.9113 28.9128 51.8869 28.9258 51.8641C28.9421 51.8413 28.9551 51.8218 28.9648 51.8055C28.9779 51.786 28.9844 51.7746 28.9844 51.7714C28.9844 51.7714 28.9844 51.7632 28.9844 51.7469C28.9876 51.7274 28.9893 51.7063 28.9893 51.6835C28.9925 51.6607 28.9941 51.6395 28.9941 51.62C28.9974 51.5972 28.999 51.5809 28.999 51.5712C28.999 51.5614 28.9974 51.5468 28.9941 51.5272C28.9941 51.5077 28.9925 51.4865 28.9893 51.4637C28.9893 51.441 28.9876 51.4198 28.9844 51.4003C28.9844 51.3775 28.9844 51.3628 28.9844 51.3563C28.8932 51.301 28.8249 51.2375 28.7793 51.1659C28.7337 51.091 28.6914 51.0064 28.6523 50.912C28.6491 50.9022 28.6393 50.8843 28.623 50.8583C28.6068 50.8322 28.5905 50.8062 28.5742 50.7802C28.5579 50.7509 28.5417 50.7248 28.5254 50.702C28.5124 50.676 28.5042 50.6613 28.501 50.6581C28.488 50.632 28.4684 50.5913 28.4424 50.536C28.4196 50.4807 28.4001 50.4416 28.3838 50.4188C28.3773 50.4156 28.3708 50.4058 28.3643 50.3895C28.3577 50.37 28.3512 50.3505 28.3447 50.3309C28.3382 50.3114 28.3317 50.2919 28.3252 50.2723C28.3219 50.2528 28.3187 50.2398 28.3154 50.2333L28.3057 50.2235C28.3024 50.2203 28.2975 50.2186 28.291 50.2186C28.2878 50.2154 28.2845 50.2105 28.2812 50.204C28.2682 50.1942 28.2568 50.1844 28.2471 50.1747C28.182 50.0933 28.1299 50.0087 28.0908 49.9208C28.055 49.8329 28.0062 49.7515 27.9443 49.6766C27.902 49.6278 27.8581 49.5855 27.8125 49.5497C27.7669 49.5106 27.7197 49.4748 27.6709 49.4423C27.6253 49.4097 27.5781 49.3772 27.5293 49.3446C27.4805 49.3121 27.4333 49.2746 27.3877 49.2323C27.3617 49.216 27.3454 49.1965 27.3389 49.1737C27.3356 49.1477 27.334 49.1216 27.334 49.0956C27.334 49.0598 27.3421 49.037 27.3584 49.0272C27.3747 49.0175 27.4007 49.0126 27.4365 49.0126H27.4561C27.4561 49.0126 27.4626 49.0142 27.4756 49.0175C27.4919 49.0207 27.5081 49.024 27.5244 49.0272C27.5439 49.0305 27.5602 49.0337 27.5732 49.037C27.5895 49.0402 27.6009 49.0419 27.6074 49.0419H27.6318C27.8402 49.0419 28.0452 49.0354 28.2471 49.0223C28.4521 49.0093 28.6572 49.0028 28.8623 49.0028C28.9404 49.0028 28.9974 49.0126 29.0332 49.0321C29.0723 49.0484 29.0918 49.094 29.0918 49.1688C29.0918 49.2339 29.0788 49.2795 29.0527 49.3055C29.0267 49.3283 28.9974 49.3462 28.9648 49.3593C28.9323 49.3723 28.903 49.3885 28.877 49.4081C28.8509 49.4276 28.8379 49.4667 28.8379 49.5253C28.8379 49.5513 28.8477 49.5855 28.8672 49.6278C28.8867 49.6669 28.903 49.6945 28.916 49.7108C28.9258 49.7271 28.9469 49.7678 28.9795 49.8329C29.0153 49.8947 29.0527 49.9631 29.0918 50.038C29.1341 50.1096 29.1732 50.1763 29.209 50.2382C29.2448 50.3 29.2676 50.3391 29.2773 50.3553C29.3001 50.3879 29.3197 50.4139 29.3359 50.4335C29.3555 50.453 29.3783 50.4628 29.4043 50.4628C29.4434 50.4628 29.4873 50.4465 29.5361 50.4139C29.5882 50.3781 29.6549 50.3293 29.7363 50.2675C29.7689 50.2414 29.8014 50.2007 29.834 50.1454C29.8698 50.0868 29.9023 50.0282 29.9316 49.9696C29.9609 49.9078 29.987 49.8492 30.0098 49.7938C30.0358 49.7385 30.057 49.6994 30.0732 49.6766ZM36.2646 53.5536C36.2516 53.5536 36.2321 53.5552 36.2061 53.5585C36.1833 53.5585 36.1589 53.5585 36.1328 53.5585C36.11 53.5585 36.0889 53.5601 36.0693 53.5634C36.0498 53.5634 36.04 53.5634 36.04 53.5634L35.9229 53.6073L35.3223 53.5731H34.043C33.9941 53.5568 33.9518 53.5455 33.916 53.5389C33.8835 53.5324 33.8444 53.5292 33.7988 53.5292C33.763 53.5292 33.7354 53.5308 33.7158 53.5341C33.6963 53.5373 33.6702 53.5471 33.6377 53.5634C33.6051 53.5634 33.5498 53.5617 33.4717 53.5585C33.3968 53.5552 33.3171 53.5536 33.2324 53.5536C33.1478 53.5536 33.0664 53.5552 32.9883 53.5585C32.9134 53.5617 32.863 53.5634 32.8369 53.5634C32.8271 53.5634 32.8092 53.565 32.7832 53.5682C32.7604 53.5715 32.7344 53.5731 32.7051 53.5731C32.679 53.5764 32.653 53.5796 32.627 53.5829C32.6042 53.5861 32.5895 53.5878 32.583 53.5878C32.5732 53.591 32.5618 53.5927 32.5488 53.5927C32.5391 53.5959 32.5293 53.5975 32.5195 53.5975C32.513 53.5975 32.5065 53.5975 32.5 53.5975C32.4121 53.5975 32.3454 53.5878 32.2998 53.5682C32.2575 53.552 32.2201 53.4999 32.1875 53.412C32.1745 53.412 32.168 53.4087 32.168 53.4022C32.1647 53.399 32.1647 53.3941 32.168 53.3876C32.168 53.3615 32.1761 53.3339 32.1924 53.3046C32.2119 53.272 32.2347 53.2427 32.2607 53.2167C32.29 53.1906 32.3193 53.1695 32.3486 53.1532C32.3812 53.1337 32.4121 53.1239 32.4414 53.1239H32.9053C32.9118 53.1239 32.9329 53.106 32.9688 53.0702C33.0046 53.0311 33.0339 53.0018 33.0566 52.9823C33.0632 52.9758 33.0697 52.9628 33.0762 52.9432C33.0859 52.9205 33.0908 52.9042 33.0908 52.8944C33.1299 52.7024 33.1527 52.5119 33.1592 52.3231C33.1657 52.1343 33.1689 51.9374 33.1689 51.7323C33.1689 51.716 33.1689 51.6802 33.1689 51.6249C33.1722 51.5663 33.1738 51.4979 33.1738 51.4198C33.1771 51.3417 33.1803 51.2603 33.1836 51.1757C33.1868 51.0878 33.1885 51.0048 33.1885 50.9266C33.1917 50.8485 33.1934 50.7818 33.1934 50.7264C33.1966 50.6678 33.1982 50.6288 33.1982 50.6093V50.3456C33.1982 50.0852 33.1934 49.828 33.1836 49.5741C33.1738 49.3202 33.1689 49.0679 33.1689 48.8173V48.7831C33.1689 48.7733 33.1706 48.7489 33.1738 48.7098C33.1771 48.6675 33.1803 48.6236 33.1836 48.578C33.1868 48.5324 33.1901 48.4901 33.1934 48.451C33.1966 48.412 33.1982 48.3876 33.1982 48.3778C33.2015 48.3485 33.2048 48.2981 33.208 48.2264C33.2113 48.1516 33.2145 48.0734 33.2178 47.9921C33.221 47.9074 33.2243 47.8293 33.2275 47.7577C33.2308 47.6861 33.2324 47.6356 33.2324 47.6063C33.2161 47.5575 33.2064 47.507 33.2031 47.455C33.1999 47.3996 33.195 47.3475 33.1885 47.2987C33.182 47.2466 33.1689 47.1978 33.1494 47.1522C33.1299 47.1066 33.099 47.0676 33.0566 47.035C33.0371 47.0318 33.0029 47.0285 32.9541 47.0253C32.9053 47.022 32.8532 47.0204 32.7979 47.0204C32.7458 47.0171 32.6953 47.0139 32.6465 47.0106C32.5977 47.0074 32.5651 47.0041 32.5488 47.0009C32.4967 46.9943 32.4398 46.9862 32.3779 46.9764C32.3161 46.9634 32.2591 46.9455 32.207 46.9227C32.1549 46.8967 32.111 46.8625 32.0752 46.8202C32.0426 46.7779 32.0264 46.7225 32.0264 46.6542L32.0459 46.6444C32.0524 46.6412 32.0573 46.6379 32.0605 46.6346C32.0638 46.6314 32.0687 46.6298 32.0752 46.6298C32.1533 46.5842 32.2233 46.5549 32.2852 46.5419C32.347 46.5256 32.4268 46.5175 32.5244 46.5175H32.5488C32.5586 46.5272 32.5684 46.5354 32.5781 46.5419C32.5977 46.5549 32.6107 46.5614 32.6172 46.5614C32.7799 46.5744 32.9427 46.5842 33.1055 46.5907C33.2682 46.594 33.4326 46.5956 33.5986 46.5956C33.7354 46.5956 33.8688 46.594 33.999 46.5907C34.1292 46.5874 34.2578 46.5858 34.3848 46.5858H35.4639C35.4769 46.5858 35.498 46.5842 35.5273 46.5809C35.5566 46.5777 35.5876 46.576 35.6201 46.576C35.6559 46.5728 35.6901 46.5695 35.7227 46.5663C35.7552 46.563 35.7796 46.5614 35.7959 46.5614H35.8301H35.8594C35.8691 46.5614 35.8919 46.563 35.9277 46.5663C35.9635 46.5695 36.0026 46.5728 36.0449 46.576C36.0872 46.576 36.1263 46.5777 36.1621 46.5809C36.2012 46.5842 36.2256 46.5858 36.2354 46.5858H36.8164C36.8424 46.5891 36.8799 46.5923 36.9287 46.5956C36.9808 46.5988 37.0312 46.6021 37.0801 46.6053C37.1322 46.6086 37.1777 46.6135 37.2168 46.62C37.2559 46.6233 37.277 46.6265 37.2803 46.6298C37.2835 46.6298 37.2965 46.6346 37.3193 46.6444C37.3421 46.6542 37.3665 46.6672 37.3926 46.6835C37.4219 46.6965 37.4495 46.7111 37.4756 46.7274C37.5049 46.7437 37.5277 46.7583 37.5439 46.7714C37.5765 46.7909 37.6025 46.8381 37.6221 46.913C37.6449 46.9846 37.6628 47.0643 37.6758 47.1522C37.6888 47.2401 37.6986 47.3264 37.7051 47.411C37.7148 47.4956 37.723 47.5608 37.7295 47.6063C37.7295 47.6226 37.7311 47.6519 37.7344 47.6942C37.7409 47.7333 37.7458 47.7756 37.749 47.8212C37.7523 47.8667 37.7555 47.9107 37.7588 47.953C37.762 47.9953 37.7637 48.0246 37.7637 48.0409V48.1727V48.3094C37.7474 48.3387 37.7262 48.3583 37.7002 48.368C37.6742 48.3746 37.6465 48.3778 37.6172 48.3778H37.583C37.5472 48.355 37.5212 48.3322 37.5049 48.3094C37.4886 48.2867 37.4756 48.2639 37.4658 48.2411C37.4561 48.215 37.4463 48.189 37.4365 48.163C37.43 48.1369 37.417 48.1093 37.3975 48.08C37.3975 48.0767 37.391 48.0702 37.3779 48.0604C37.3682 48.0474 37.3568 48.0344 37.3438 48.0214C37.3307 48.0083 37.3177 47.9969 37.3047 47.9872C37.2917 47.9742 37.2835 47.966 37.2803 47.9628C37.2347 47.8977 37.1891 47.8244 37.1436 47.743C37.1012 47.6584 37.0508 47.5803 36.9922 47.5087C36.9889 47.5022 36.9775 47.4908 36.958 47.4745C36.9417 47.4582 36.9303 47.4436 36.9238 47.4305C36.9206 47.424 36.9092 47.4191 36.8896 47.4159C36.8701 47.4094 36.8571 47.4029 36.8506 47.3964C36.8115 47.3703 36.7806 47.341 36.7578 47.3085C36.735 47.2759 36.7106 47.245 36.6846 47.2157C36.6618 47.1831 36.6357 47.1522 36.6064 47.1229C36.5771 47.0936 36.5365 47.0692 36.4844 47.0497C36.4583 47.0497 36.4079 47.0481 36.333 47.0448C36.2614 47.0383 36.1849 47.0334 36.1035 47.0302C36.0221 47.0236 35.944 47.0188 35.8691 47.0155C35.7975 47.009 35.7471 47.0041 35.7178 47.0009H35.4639C35.4606 47.0009 35.446 46.9992 35.4199 46.996C35.3971 46.9895 35.3711 46.9846 35.3418 46.9813C35.3125 46.9748 35.2848 46.9699 35.2588 46.9667C35.2327 46.9602 35.2165 46.9569 35.21 46.9569H35.1367H35.0684C35.0553 46.9569 35.026 46.9602 34.9805 46.9667C34.9382 46.9699 34.891 46.9748 34.8389 46.9813C34.79 46.9846 34.7428 46.9895 34.6973 46.996C34.6549 46.9992 34.6289 47.0009 34.6191 47.0009H34.3311C34.318 47.0009 34.3034 47.0057 34.2871 47.0155C34.2708 47.022 34.2627 47.0285 34.2627 47.035V47.6405C34.2594 47.7447 34.2448 47.844 34.2188 47.9384C34.1927 48.0328 34.1797 48.1288 34.1797 48.2264C34.1797 48.3729 34.1862 48.521 34.1992 48.6708C34.2155 48.8173 34.2236 48.967 34.2236 49.12C34.2236 49.2242 34.2155 49.33 34.1992 49.4374C34.1862 49.5448 34.1797 49.6555 34.1797 49.7694V49.8036C34.1895 49.8134 34.2025 49.828 34.2188 49.8475C34.235 49.8638 34.2497 49.8719 34.2627 49.8719H34.3848H34.5117C34.5182 49.8719 34.5329 49.8703 34.5557 49.8671C34.5785 49.8606 34.6029 49.8557 34.6289 49.8524C34.6549 49.8459 34.6777 49.841 34.6973 49.8378C34.7201 49.8313 34.7331 49.828 34.7363 49.828H35.1709C35.1937 49.828 35.2344 49.8264 35.293 49.8231C35.3548 49.8199 35.4183 49.8182 35.4834 49.8182C35.5518 49.815 35.6152 49.8117 35.6738 49.8085C35.7324 49.8052 35.7731 49.8036 35.7959 49.8036C35.8447 49.7613 35.8805 49.6994 35.9033 49.618C35.9261 49.5334 35.9489 49.4634 35.9717 49.4081C35.9749 49.3983 35.9782 49.3755 35.9814 49.3397C35.988 49.3007 35.9945 49.26 36.001 49.2177C36.0075 49.1753 36.014 49.1363 36.0205 49.1005C36.027 49.0614 36.0335 49.037 36.04 49.0272C36.04 49.024 36.0433 49.0158 36.0498 49.0028C36.0596 48.9865 36.0693 48.9719 36.0791 48.9589C36.0889 48.9426 36.097 48.9279 36.1035 48.9149C36.1133 48.9019 36.1198 48.8938 36.123 48.8905C36.1361 48.8482 36.1442 48.8026 36.1475 48.7538C36.1507 48.705 36.1589 48.661 36.1719 48.6219C36.1849 48.5796 36.2061 48.5455 36.2354 48.5194C36.2646 48.4934 36.3118 48.4803 36.377 48.4803C36.4486 48.4803 36.4958 48.4966 36.5186 48.5292C36.5413 48.5617 36.5527 48.6154 36.5527 48.6903C36.5527 48.7163 36.5511 48.7359 36.5479 48.7489C36.5446 48.7587 36.5381 48.7815 36.5283 48.8173C36.5283 48.8205 36.5267 48.8287 36.5234 48.8417C36.5202 48.8547 36.5186 48.8693 36.5186 48.8856C36.5186 48.9117 36.5202 48.9361 36.5234 48.9589C36.5267 48.9784 36.5283 48.993 36.5283 49.0028C36.5251 49.0223 36.5218 49.063 36.5186 49.1249C36.5153 49.1867 36.5104 49.2583 36.5039 49.3397C36.4974 49.4211 36.4909 49.509 36.4844 49.6034C36.4779 49.6945 36.4714 49.7824 36.4648 49.8671C36.4583 49.9484 36.4518 50.0201 36.4453 50.0819C36.4421 50.1438 36.4388 50.1861 36.4355 50.2089C36.4355 50.2154 36.4372 50.2463 36.4404 50.3016C36.4437 50.3537 36.4453 50.4074 36.4453 50.4628C36.4453 50.4888 36.4421 50.5181 36.4355 50.5507C36.429 50.58 36.4242 50.5995 36.4209 50.6093C36.4209 50.6093 36.4176 50.6174 36.4111 50.6337C36.4079 50.6499 36.403 50.6695 36.3965 50.6923C36.3932 50.7118 36.3883 50.7313 36.3818 50.7509C36.3786 50.7671 36.377 50.7785 36.377 50.785C36.377 50.7948 36.3786 50.8176 36.3818 50.8534C36.3851 50.8892 36.3883 50.9283 36.3916 50.9706C36.3981 51.0096 36.403 51.0471 36.4062 51.0829C36.4095 51.1154 36.4111 51.1366 36.4111 51.1464C36.4111 51.1594 36.4111 51.1789 36.4111 51.205C36.4144 51.2277 36.416 51.2522 36.416 51.2782C36.416 51.301 36.416 51.3238 36.416 51.3466C36.4193 51.3693 36.4209 51.3872 36.4209 51.4003C36.4209 51.4556 36.4144 51.5061 36.4014 51.5516C36.3916 51.5972 36.3688 51.6477 36.333 51.703C36.3298 51.7193 36.3135 51.7372 36.2842 51.7567C36.2581 51.773 36.2419 51.7811 36.2354 51.7811C36.2288 51.7811 36.2109 51.773 36.1816 51.7567C36.1523 51.7372 36.1328 51.7193 36.123 51.703C36.0677 51.6574 36.0286 51.594 36.0059 51.5126C35.9863 51.4312 35.9733 51.3433 35.9668 51.2489C35.9603 51.1512 35.957 51.052 35.957 50.951C35.957 50.8501 35.9505 50.7574 35.9375 50.6727C35.9277 50.5848 35.9066 50.5116 35.874 50.453C35.8415 50.3944 35.7894 50.3586 35.7178 50.3456C35.6917 50.3521 35.651 50.3553 35.5957 50.3553C35.5404 50.3553 35.4801 50.3553 35.415 50.3553C35.3467 50.3553 35.2816 50.3553 35.2197 50.3553C35.1611 50.3553 35.1221 50.3521 35.1025 50.3456C35.0863 50.3456 35.0602 50.344 35.0244 50.3407C34.9886 50.3374 34.9512 50.3358 34.9121 50.3358C34.8763 50.3326 34.8405 50.3293 34.8047 50.326C34.7721 50.3228 34.7493 50.3212 34.7363 50.3212C34.7331 50.3114 34.7201 50.3 34.6973 50.287C34.6745 50.274 34.6598 50.2675 34.6533 50.2675H34.6045C34.5199 50.2675 34.4385 50.2886 34.3604 50.3309C34.2855 50.37 34.2399 50.4335 34.2236 50.5214C34.2204 50.5441 34.2122 50.5897 34.1992 50.6581C34.1895 50.7232 34.1781 50.7948 34.165 50.8729C34.1553 50.951 34.1439 51.0275 34.1309 51.1024C34.1211 51.174 34.1146 51.2277 34.1113 51.2635V51.2928V51.327C34.1113 51.3531 34.113 51.3954 34.1162 51.454C34.1195 51.5126 34.1227 51.576 34.126 51.6444C34.1292 51.7095 34.1325 51.773 34.1357 51.8348C34.1423 51.8934 34.1455 51.9341 34.1455 51.9569C34.1618 51.983 34.1715 52.0025 34.1748 52.0155C34.1781 52.0285 34.1797 52.0432 34.1797 52.0594C34.1797 52.1864 34.1732 52.3101 34.1602 52.4305C34.1471 52.551 34.1406 52.6779 34.1406 52.8114C34.1406 52.8244 34.1406 52.8521 34.1406 52.8944C34.1439 52.9367 34.1455 52.966 34.1455 52.9823C34.1488 52.9888 34.1569 53.0002 34.1699 53.0165C34.1829 53.0295 34.196 53.0441 34.209 53.0604C34.2253 53.0734 34.2415 53.0865 34.2578 53.0995C34.2741 53.1125 34.2855 53.1206 34.292 53.1239C34.2952 53.1304 34.3099 53.1353 34.3359 53.1385C34.3652 53.1418 34.3978 53.1451 34.4336 53.1483C34.4694 53.1483 34.5036 53.1516 34.5361 53.1581C34.5719 53.1613 34.5996 53.1646 34.6191 53.1678C34.6582 53.1678 34.7249 53.1695 34.8193 53.1727C34.917 53.176 35.0195 53.1792 35.127 53.1825C35.2376 53.1858 35.3402 53.189 35.4346 53.1923C35.5322 53.1923 35.6006 53.1923 35.6396 53.1923C35.6787 53.2085 35.7178 53.2199 35.7568 53.2264C35.7992 53.233 35.8398 53.2362 35.8789 53.2362H36.0156H36.2354C36.2386 53.2362 36.25 53.2346 36.2695 53.2313C36.2891 53.2248 36.3102 53.2199 36.333 53.2167C36.359 53.2102 36.3818 53.2053 36.4014 53.202C36.4209 53.1955 36.4323 53.1923 36.4355 53.1923H37.3633C37.3991 53.1825 37.4333 53.1646 37.4658 53.1385C37.4984 53.1093 37.5293 53.0783 37.5586 53.0458C37.5879 53.01 37.6139 52.9742 37.6367 52.9384C37.6595 52.8993 37.679 52.8651 37.6953 52.8358C37.7051 52.826 37.7181 52.8033 37.7344 52.7675C37.7539 52.7316 37.7718 52.6942 37.7881 52.6552C37.8076 52.6128 37.8255 52.5738 37.8418 52.538C37.8581 52.5022 37.8678 52.481 37.8711 52.4745C37.8776 52.4647 37.8923 52.4452 37.915 52.4159C37.9378 52.3866 37.9492 52.3687 37.9492 52.3622C37.9525 52.3557 37.959 52.3378 37.9688 52.3085C37.9785 52.2792 37.9834 52.2613 37.9834 52.2548C37.9867 52.2515 37.9948 52.2417 38.0078 52.2255C38.0241 52.2092 38.0404 52.1929 38.0566 52.1766C38.0729 52.1604 38.0876 52.1441 38.1006 52.1278C38.1136 52.1115 38.1217 52.1001 38.125 52.0936C38.1283 52.0904 38.1348 52.0806 38.1445 52.0643C38.1576 52.0448 38.1689 52.0236 38.1787 52.0009C38.1917 51.9748 38.2015 51.952 38.208 51.9325C38.2178 51.9097 38.2243 51.8951 38.2275 51.8885C38.234 51.8755 38.252 51.856 38.2812 51.83C38.3138 51.8039 38.3317 51.7876 38.335 51.7811C38.3415 51.7746 38.3496 51.7697 38.3594 51.7665C38.3691 51.76 38.3773 51.7535 38.3838 51.7469C38.3936 51.7404 38.4033 51.7356 38.4131 51.7323C38.4261 51.7388 38.4456 51.7551 38.4717 51.7811C38.4977 51.8072 38.5173 51.8267 38.5303 51.8397V51.8641C38.5303 51.9032 38.5238 51.9406 38.5107 51.9764C38.501 52.0122 38.4961 52.0481 38.4961 52.0839C38.4961 52.1294 38.501 52.1701 38.5107 52.2059C38.5238 52.2385 38.5303 52.2775 38.5303 52.3231V52.3622C38.5303 52.3719 38.5238 52.3899 38.5107 52.4159C38.501 52.4419 38.4961 52.4615 38.4961 52.4745V53.0458C38.4928 53.0848 38.488 53.1353 38.4814 53.1971C38.4749 53.2557 38.4619 53.3127 38.4424 53.368C38.4229 53.4201 38.3952 53.4657 38.3594 53.5048C38.3236 53.5438 38.2764 53.5634 38.2178 53.5634H38.1934C38.1836 53.5601 38.1673 53.5568 38.1445 53.5536C38.1217 53.5503 38.099 53.5471 38.0762 53.5438C38.0534 53.5406 38.0322 53.5373 38.0127 53.5341C37.9964 53.5308 37.9867 53.5292 37.9834 53.5292L37.9541 53.5096C37.9346 53.4966 37.9248 53.4885 37.9248 53.4852H37.8955H37.8711C37.7572 53.5243 37.6497 53.5438 37.5488 53.5438C37.4479 53.5438 37.3421 53.5503 37.2314 53.5634C37.2217 53.5634 37.2038 53.565 37.1777 53.5682C37.1517 53.5715 37.1224 53.5747 37.0898 53.578C37.0605 53.5845 37.0329 53.591 37.0068 53.5975C36.9808 53.604 36.9645 53.6089 36.958 53.6122H36.9336C36.875 53.6122 36.8197 53.604 36.7676 53.5878C36.7188 53.5715 36.6618 53.5634 36.5967 53.5634C36.5902 53.5634 36.5723 53.5634 36.543 53.5634C36.5169 53.5601 36.486 53.5585 36.4502 53.5585C36.4176 53.5585 36.3835 53.5585 36.3477 53.5585C36.3151 53.5552 36.2874 53.5536 36.2646 53.5536Z" fill="#151618"/>
</svg>
